<?xml version="1.0" standalone="no"?><!DOCTYPE svg PUBLIC "-//W3C//DTD SVG 1.1//EN" "http://www.w3.org/Graphics/SVG/1.1/DTD/svg11.dtd"><svg t="1728723739157" class="icon" viewBox="0 0 1228 1024" version="1.1" xmlns="http://www.w3.org/2000/svg" p-id="33837" xmlns:xlink="http://www.w3.org/1999/xlink" width="239.84375" height="200"><path d="M0 0m97.390223 0l973.902226 0q97.390223 0 97.390222 97.390223l0 779.12178q0 97.390223-97.390222 97.390223l-973.902226 0q-97.390223 0-97.390223-97.390223l0-779.12178q0-97.390223 97.390223-97.390223Z" fill="#ffffff" p-id="33838" data-spm-anchor-id="a313x.search_index.0.i23.488b3a81TPyFeW" class="selected"></path><path d="M219.128001 219.128001m24.347556 0l681.731558 0q24.347556 0 24.347555 24.347556l0 486.951113q0 24.347556-24.347555 24.347555l-681.731558 0q-24.347556 0-24.347556-24.347555l0-486.951113q0-24.347556 24.347556-24.347556Z" fill="#FFFFFF" p-id="33839"></path><path d="M587.993469 233.493059h258.571041c9.008596 0 10.9564 1.704329 10.9564 10.712924v493.281478c0 9.008596-1.947804 10.712924-10.9564 10.712924H329.422428c-9.008596 0-10.9564-1.704329-10.9564-10.712924V244.205983c0-9.008596 1.947804-10.712924 10.9564-10.712924 86.190347 0.243476 172.380694 0 258.571041 0z m219.128001 429.977832V657.384003l18.017191-9.008596 2.19128-3.408658-1.460853 3.895609c-3.408658-2.19128-2.921707-5.843413-2.921707-9.252071l5.843413-2.921707c4.869511-1.704329 3.652133-3.165182 0-4.626035l-8.521644-4.139085c-1.460853-6.57384 3.165182-8.521644 8.034693-10.469449s19.478045-2.19128 20.451947-8.521644-8.278169-13.391156-13.14768-19.964996-4.139084-6.57384-6.817316-7.547742c-6.57384-2.434756-3.895609-5.843413-1.460853-8.76512 7.547742-8.278169 10.9564-15.33896-4.139084-18.747618a19.964996 19.964996 0 0 1 0-4.38256c9.252071 3.408658 10.9564-11.930302 20.451946-8.034693 3.895609 1.460853 8.76512 5.356462 11.443351 0a9.252071 9.252071 0 0 0-2.678231-13.14768 41.390845 41.390845 0 0 0-8.76512-19.72152c0-4.626036 9.252071-7.547742 5.112987-12.417254s-11.930302-6.57384-14.121582-4.869511a42.851698 42.851698 0 0 1-40.416943 6.57384 117.842169 117.842169 0 0 0-20.208471 0l2.921707-4.869511c6.086889-3.652133 3.408658-5.599938-1.460854-7.304267-7.060791 1.947804-10.225973 0-9.495546-8.034693a155.093929 155.093929 0 0 0-11.686827-73.042667c0-4.869511-1.217378-8.034693-6.330364-8.76512a76.451325 76.451325 0 0 0-12.173778-24.347556A85.45992 85.45992 0 0 0 706.079114 340.865779a147.546187 147.546187 0 0 0-57.460231-32.8692 27.025787 27.025787 0 0 0-14.852009-6.086889 359.126446 359.126446 0 0 0-73.042667-2.921707 167.267707 167.267707 0 0 0-85.946872 33.356152 157.041734 157.041734 0 0 0-46.260356 54.051573l-8.034693-6.330364c-2.434756-2.434756-6.086889-5.112987-8.521644-3.652134s0 6.086889 0 9.495547h-7.060792c1.460853 4.626036 4.38256 7.547742 9.739023 6.086889s10.712924-3.895609 12.417253 4.38256a61.112365 61.112365 0 0 0-15.095484 41.63432c-10.225973 0-11.930302 7.304267-11.930303 15.33896s-5.843413 11.199876-13.14768 6.086889a39.929991 39.929991 0 0 0-16.556338-9.252071l-1.947804-1.217378v1.947805c1.704329 6.086889 3.408658 12.173778 4.869511 18.260666a7.791218 7.791218 0 0 0 8.034693 7.060792c18.017191 0 22.886702 3.652133 20.451947 19.478044 0 3.895609 2.434756 4.139084 4.139085 4.869511 6.086889 2.921707 4.626036 8.034693 4.626035 12.904205-21.425849 8.521644-24.347556-13.391156-38.712613-22.886703 0 7.547742-2.19128 13.391156 4.626035 18.260667s2.678231 9.739022-1.704329 13.878107c-5.356462 0-6.086889-3.895609-6.086888-8.278169A5.843413 5.843413 0 0 0 365.213335 511.298669v-2.921707c0-4.38256 0-8.76512-6.086889-9.008596a26.29536 26.29536 0 0 1 0-4.38256 12.417253 12.417253 0 0 0-10.712925-14.852009c-3.165182 0-6.330364-1.460853-7.791217 1.460854-3.895609 7.304267 5.356462 9.252071 6.817315 14.608533 0 9.252071-9.739022 10.225973-15.582435 13.878107s-9.252071 7.060791 0 10.469449c4.38256 15.825911 15.33896 6.086889 24.347555 6.330364 0 19.478045 15.825911 13.391156 26.782311 14.608534a33.356151 33.356151 0 0 0 18.260667 15.33896 8.76512 8.76512 0 0 0 9.252071 5.599938c3.408658 0 4.626036 1.947804 6.330365 4.869511 5.112987 9.008596 12.173778 14.121582 22.886702 7.791217a121.737778 121.737778 0 0 1 24.347556 29.947494 130.989849 130.989849 0 0 0-62.086267 5.112987 45.529929 45.529929 0 0 0-18.260667 56.486329 43.8256 43.8256 0 0 0 57.216756 7.060791 31.164871 31.164871 0 0 1 40.903893-4.869511c0 6.57384 3.165182 8.521644 9.252071 7.547742h5.843414a24.347556 24.347556 0 0 0 33.112676 0c7.060791 0 13.634631-4.626036 20.938897-2.678231 4.38256 7.547742 9.982498 10.469449 18.017192 5.112987h30.434444c8.278169 5.356462 14.852009 0 21.182374-3.895609 5.599938 1.460853 9.008596-4.626036 14.365057-4.139085a6.086889 6.086889 0 0 0 6.330365 5.599938c0 1.947804 0 4.38256 2.921707 4.38256s2.921707-2.19128 3.165182-4.38256h6.086889a61.842791 61.842791 0 0 0 24.347555 0h9.008596c0 1.947804 0 4.38256 2.921707 4.38256s2.678231-2.19128 2.921706-4.38256h30.190969c0 2.19128 0 4.38256 2.921707 4.38256s2.678231-2.434756 2.921707-4.38256h30.434444a24.347556 24.347556 0 0 0 32.8692 0h6.086889c3.408658 5.112987 7.060791 1.460853 9.495547 0s2.19128-9.252071-1.460853-12.904205z" fill="#FDFDFD" p-id="33840"></path><path d="M818.321345 627.436509l8.521645 4.139085v4.626035l-5.843413 2.921707c-10.469449 0-19.72152 0-15.582436 14.608533a8.76512 8.76512 0 0 0-2.678231 9.495547 125.633387 125.633387 0 0 1-56.97328 4.139084h-5.599938a69.877485 69.877485 0 0 0-24.347556 2.434756l-10.712924-1.947805c-9.982498-8.034693-17.773716 5.599938-27.269263 2.921707a18.747618 18.747618 0 0 0-11.930302-3.165182c-11.199876-7.791218-19.72152 5.356462-30.434445 3.408658-5.356462 0-8.76512 5.599938-14.365057 4.139084s-5.599938-2.678231-8.76512-2.921706-2.921707-4.38256-5.599938-3.408658a139.511494 139.511494 0 0 1-48.695111 2.434755h-5.843414a21.182373 21.182373 0 0 0-20.695422-4.38256 93.981565 93.981565 0 0 1-41.877796 3.408658h-6.817315a31.164871 31.164871 0 0 0-40.903894 4.869511 43.8256 43.8256 0 0 1-57.216756-7.060791 45.529929 45.529929 0 0 1 16.556338-59.408036 130.989849 130.989849 0 0 1 61.35584-4.869511c6.817316 5.843413 15.582436 0 22.886703 3.408658-2.921707-14.365058 11.199876-9.008596 16.069386-14.365058h2.19128l3.652134-3.165182c2.921707-1.217378 5.356462-4.139084 9.008595-3.165182 0 7.060791 6.330364 7.791218 9.982498 11.443351 3.408658 7.791218 24.347556 13.14768 29.704018 7.547742s3.652133-4.626036 0-7.060791v-5.843413a48.695111 48.695111 0 0 1 19.478045 8.521644 12.660729 12.660729 0 0 0 21.669324-4.869511c8.76512-9.252071 17.773716-13.634631 27.269262 0-7.304267 5.599938-20.938898 3.165182-23.130177 15.33896 14.121582 11.199876 24.347556-1.704329 37.25176-3.652133l3.652133-2.434756 11.930302-9.008596c3.895609-5.112987 7.791218 1.217378 11.686827 0a10.469449 10.469449 0 0 0 6.086889 9.739023c0 6.817316 4.139084 9.008596 11.930302 8.76512s19.964996-8.278169 30.67792-3.652134h1.704329c8.521644 6.086889 16.069387 15.582436 27.756214 5.599938 15.582436 0 6.086889-9.252071 6.330364-14.852009v-3.165182c4.139084-9.495547 6.330364 1.704329 9.739022 0 4.626036 6.086889 11.686827 8.034693 16.069387 2.678231s-2.434756-9.252071-6.817315-12.417253v-3.165182c7.060791-4.38256 10.9564 0 14.608533 5.112986s2.921707 9.982498 9.739022 9.739022l3.408658 5.112987c0 4.38256-7.547742 2.921707-8.034693 9.008596a42.851698 42.851698 0 0 1 29.217066 12.417253z m-376.900161 0l23.130178-3.408658c3.652133 0 7.547742-1.704329 8.034693-5.599937s-4.38256-5.356462-7.304267-5.843414a133.911556 133.911556 0 0 0-56.486329 2.19128 39.929991 39.929991 0 0 0-20.695422 39.199565c2.434756 9.008596 19.478045 12.904204 34.817005 7.791218a16.799813 16.799813 0 0 0 10.225973-8.034694 18.504142 18.504142 0 0 1 10.712925-7.791218c7.547742-2.921707 21.669325 1.947804 21.425848-9.739022s-14.608533-3.165182-23.860604-7.791218z m217.423672 14.608534c1.460853 13.634631 10.225973 14.365058 19.72152 15.582435s13.878107-9.495547 21.9128-13.14768c3.408658 5.356462 3.408658 12.417253 11.443351 12.904205s15.33896 0 17.043289-8.034694 5.599938-20.208471-6.330364-24.347555-24.347556-8.76512-34.573529 5.599937c-3.408658 4.869511-6.330364 6.57384-11.443351 0a24.347556 24.347556 0 0 0-37.495236-1.704329c-6.817316 7.304267-16.799813 15.095485-12.660729 26.782312 2.678231 7.547742 20.451947 1.704329 32.382249-12.660729z m-85.45992 17.773715h11.199875c22.156276-2.19128 33.843102-10.469449 37.008285-26.051884 0-6.086889 0-9.008596-6.330365-10.9564a20.695422 20.695422 0 0 0-28.48664 13.634631c-2.19128 6.57384-4.38256 12.904204-12.904204 10.9564s-3.165182-8.521644-2.678231-13.14768a9.252071 9.252071 0 0 0-5.112987-11.199876 22.886702 22.886702 0 0 0-22.643227 2.678231 20.695422 20.695422 0 0 0-7.791218 21.425849c1.460853 8.278169 9.252071 9.252071 16.312863 10.225974z m220.588854-5.599938c-5.599938-9.008596-13.391156-4.869511-19.478045-9.008595 19.72152 6.330364 14.121582-16.069387 28.48664-19.964996a73.042667 73.042667 0 0 0-56.729804 1.704329c-8.278169 3.652133-7.304267 13.391156-9.008596 20.938898s3.408658 7.547742 7.304267 8.034693a117.355218 117.355218 0 0 0 49.425538-0.730426z m-292.170668 3.165183c6.330364 0 12.904204 0 19.234569-1.460854s7.547742 0 7.791218-4.869511-3.895609-4.38256-6.817316-4.626035c-9.982498 0-15.825911-4.626036-12.417253-16.312863 1.217378-4.139084-2.678231-7.304267-6.817316-8.521644a24.347556 24.347556 0 0 0-29.947493 28.48664c2.434756 7.547742 11.686827 6.086889 18.504142 6.817315s7.791218 0.486951 11.199876 0.486952z" fill="#417DB5" p-id="33841"></path><path d="M430.221308 387.126135a157.041734 157.041734 0 0 1 46.260356-54.051574 167.267707 167.267707 0 0 1 85.946872-33.356151c0 10.469449 9.008596 9.008596 15.825911 8.76512a198.91953 198.91953 0 0 1 68.660107 9.008596 225.945316 225.945316 0 0 1 56.486329 33.843102c5.356462 8.034693 14.608533 13.14768 17.773715 22.886702h-37.495235a153.876552 153.876552 0 0 0-76.20785 21.425849h-6.086888a120.276925 120.276925 0 0 0-48.695112-24.347555 109.077049 109.077049 0 0 0-59.894987-7.547743 45.529929 45.529929 0 0 0-35.06048 38.712614l-3.165182 3.165182-2.434756 5.599938-15.33896 3.408658c3.165182-10.9564 7.304267-21.425849-6.57384-27.512738z" fill="#EAF0E6" p-id="33842"></path><path d="M430.221308 387.126135c13.878107 6.086889 9.739022 16.556338 6.086889 26.782311 0 9.495547-4.626036 24.347556 14.608534 18.260667 0 8.76512-14.852009 14.121582-6.086889 26.29536 3.652133-5.112987 7.304267-9.495547 10.225973-14.365058s4.139084-10.225973-3.895609-12.173778a31.408347 31.408347 0 0 1 24.347556-11.930302c-2.434756 6.57384-8.76512 11.930302-1.460853 20.695422s0 12.660729-7.547743 15.33896c-2.19128 0-5.112987 0-4.38256 3.652134s2.921707 1.460853 4.626036 2.19128c0 11.930302 12.173778 8.278169 18.260667 13.878106-2.921707 2.19128-7.791218 0-9.739023 4.38256a19.964996 19.964996 0 0 1-6.57384 0c-12.173778 0-20.208471-18.747618-35.06048-9.252071-3.408658-2.434756-6.330364-6.330364-11.443351-3.408658 2.434756 5.599938 7.304267 3.165182 10.712924 4.382561v14.608533c-2.19128 0-4.869511 0-6.817315 2.678231h9.982498l2.921706 11.686827a57.216756 57.216756 0 0 1-21.669324 3.895609c4.869511 6.817316 14.608533 8.278169 15.825911 17.53024-11.443351-3.652133-14.852009 4.869511-18.747618 12.417253a14.365058 14.365058 0 0 1-2.921707-18.504142c0-4.869511 1.460853-9.982498-4.626035-12.904205-1.704329 0-4.626036 0-4.139085-4.869511 2.434756-15.825911-2.434756-20.208471-20.451946-19.478044a7.791218 7.791218 0 0 1-8.034694-7.060791c-1.460853-6.086889-3.165182-12.173778-4.869511-18.260667a39.929991 39.929991 0 0 1 16.556338 9.252071c7.304267 5.112987 12.904204 5.356462 13.14768-6.086889s1.704329-15.095485 11.930302-15.33896a2.921707 2.921707 0 0 0 4.869512 0 33.356151 33.356151 0 0 0 10.225973-42.364747c-1.704329-8.278169-7.060791-5.843413-12.417253-4.38256s-8.278169-1.460853-9.739023-6.086889h7.060791L413.908446 389.56089v-1.704328-9.495547c0-0.973902 6.086889 0 8.521645 3.652133z" fill="#B5C4E1" p-id="33843"></path><path d="M818.321345 627.436509a42.851698 42.851698 0 0 0-28.730115-13.14768c0-6.086889 7.060791-4.626036 8.034693-9.008596 19.478045 4.38256 10.9564-15.33896 18.504142-22.156275s-5.356462-5.356462-8.521644-8.278169a16.799813 16.799813 0 0 0-13.634631-3.652133c6.330364-6.086889 4.38256-11.686827 0-18.017192s-9.739022-14.852009-14.365058-22.399751c7.547742-4.139084 14.852009-9.495547 24.347556-2.678231l3.165182 9.008596h-2.678231a16.799813 16.799813 0 0 0-8.034694 11.199875c8.034693-2.678231 17.043289 4.38256 22.643227-5.599938 5.843413 0 3.895609 2.921707 3.165182 5.843414a19.964996 19.964996 0 0 0 0 4.38256c15.095485 3.408658 11.686827 10.469449 4.139085 18.747618-2.434756 2.921707-5.112987 6.330364 1.460853 8.76512 2.678231 0 4.869511 4.626036 6.817316 7.547742s13.878107 13.878107 13.14768 19.964996-13.391156 5.356462-20.451947 8.521644-10.469449 4.38256-9.008596 10.9564zM502.290073 592.86298c-4.869511 5.356462-18.991093 0-16.069387 14.365058-7.304267-4.139084-16.069387 2.434756-22.886702-3.408658a121.737778 121.737778 0 0 0-24.347556-29.947493 8.521644 8.521644 0 0 1 3.408658-6.57384c4.38256 1.460853 2.434756 11.443351 9.495547 8.034693s0-8.76512 0-13.391156v-4.139084l9.495547-7.791218c5.112987 0 7.547742 3.895609 11.443351 5.599938l4.139084 15.33896c-0.486951 17.043289 15.095485 16.312862 25.321458 21.9128z" fill="#598ABF" p-id="33844"></path><path d="M774.739221 493.038002l-2.921707 4.869511-8.034693 3.408658-3.165182 2.678231c-6.086889 4.139084-11.199876 11.686827-20.451947 8.278169 0-6.57384-2.19128-13.878107 3.408658-19.72152 7.304267 0 12.173778-1.217378 11.443351-10.469449s0-25.564933 0-38.225662l-16.799814-48.695112h8.521645c0 4.626036 0 8.521644 6.330364 8.76512a155.093929 155.093929 0 0 1 11.686827 73.042667c0 8.521644 2.434756 9.982498 9.495547 8.034694z" fill="#417DB5" p-id="33845"></path><path d="M763.782821 501.316171l8.034693-3.408658a117.842169 117.842169 0 0 1 20.208471 0 42.851698 42.851698 0 0 0 40.416943-6.57384c2.19128-1.704329 11.199876 1.460853 14.121582 4.869511s-4.38256 7.791218-5.112987 12.417254c-3.408658-2.19128-8.034693-5.356462-11.199875-2.678232-14.852009 12.173778-33.843102 9.495547-50.642916 14.608534-6.330364-1.460853-9.252071-8.76512-16.069387-9.495547l-2.921706-6.086889z" fill="#9DC5DC" p-id="33846"></path><path d="M779.121781 519.576838c16.799813-5.112987 35.790907-2.434756 50.642916-14.608534 3.165182-2.678231 7.791218 0 11.199875 2.678231a41.390845 41.390845 0 0 1 8.76512 19.72152c-9.739022 9.008596-7.547742-5.843413-13.634631-5.599937-4.869511 7.304267-14.121582 9.982498-21.425849 15.582435h-6.086889c0-4.38256 0-8.76512-6.330364-9.008595-8.76512-6.817316-16.069387-1.460853-24.347556 2.678231l-10.469449-4.139085c2.921707-6.086889 9.739022-3.408658 11.686827-7.304266z" fill="#417DB5" p-id="33847"></path><path d="M441.908135 567.298047a8.521644 8.521644 0 0 0-3.408658 6.57384c-10.712924 6.330364-17.773716 1.217378-22.886702-7.791218-1.704329-2.921707-2.921707-4.869511-6.330365-4.869511 1.217378-9.982498 12.660729-7.791218 16.556338-14.365058a48.695111 48.695111 0 0 1 28.48664-12.660729L462.603557 535.646224v5.599938c-8.278169 1.460853 0 6.57384-2.434755 9.739022l-9.495547 7.791218c-12.417253-6.57384-8.034693 3.165182-8.76512 8.521645z" fill="#82C6DF" p-id="33848"></path><path d="M425.838748 546.8461c-3.895609 6.57384-15.33896 4.38256-16.556338 14.365058a8.76512 8.76512 0 0 1-9.252071-5.599938c-1.217378-10.9564-6.57384-17.043289-18.260666-15.33896s-25.808409 4.869511-26.782312-14.852009l3.408658-6.086889L365.213335 511.298669a5.843413 5.843413 0 0 1 5.843413 6.817315c0 4.38256 0 8.034693 6.086889 8.278169-2.19128 4.626036 0 9.252071 3.895609 8.521645a69.147058 69.147058 0 0 1 41.63432 12.173777z" fill="#EAF0E6" p-id="33849"></path><path d="M421.699664 545.872198a70.364436 70.364436 0 0 0-41.877796-12.173778c-5.112987 0-6.086889-3.895609-3.895609-8.521645s9.495547-8.521644 1.704329-13.878106-4.139084-10.712924-4.626035-18.260667c13.634631 9.495547 17.286765 31.408347 38.712613 22.886702A14.365058 14.365058 0 0 0 413.908446 535.646224c4.139084 1.947804 7.791218 4.869511 7.791218 10.225974zM646.914554 316.518223a198.91953 198.91953 0 0 0-68.660107-9.008595c-6.817316 0-14.608533 1.704329-15.825911-8.76512a359.126446 359.126446 0 0 1 73.042666 2.921707 27.025787 27.025787 0 0 1 14.852009 6.086888c-4.139084 3.165182-3.652133 6.57384-3.408657 8.76512z" fill="#CEE3EF" p-id="33850"></path><path d="M646.914554 316.518223c0-3.165182 0-6.57384 2.678231-8.76512A147.546187 147.546187 0 0 1 706.079114 340.865779c-3.895609 2.19128-3.165182 6.086889-3.652133 9.739022a225.945316 225.945316 0 0 0-55.512427-34.086578z" fill="#B5C4E1" p-id="33851"></path><path d="M815.156163 537.350553c7.304267-5.599938 16.556338-8.278169 21.425849-15.582435 6.086889 0 3.895609 14.608533 13.634631 5.599937a9.252071 9.252071 0 0 1 2.678231 13.14768c-2.678231 5.843413-7.547742 1.947804-11.443351 0-9.495547-3.895609-11.199876 11.443351-20.451946 8.034694 0-2.921707 2.678231-6.330364-3.165183-5.843414z" fill="#9DC5DC" p-id="33852"></path><path d="M365.213335 511.298669c-1.704329 3.165182-3.652133 6.086889-5.599938 9.252071-9.252071-2.19128-18.260667-13.391156-27.512738 0-9.495547-3.408658-6.330364-6.817316 0-10.469449s14.608533-4.626036 15.582436-13.878107a20.208471 20.208471 0 0 1 11.686826 3.165182c5.843413 0 6.086889 4.626036 6.086889 9.008596s-2.19128 1.947804 0 2.921707zM427.056126 398.812962a33.356151 33.356151 0 0 1-10.225973 42.364746 2.921707 2.921707 0 0 1-4.869511 0 61.112365 61.112365 0 0 1 15.095484-42.364746z" fill="#CEE3EF" p-id="33853"></path><path d="M486.951113 668.583878a93.981565 93.981565 0 0 0 41.877796-3.408658 21.182373 21.182373 0 0 1 20.695422 4.38256v3.408658c-7.304267-1.947804-13.878107 2.678231-20.938898 2.678231h-38.225662zM745.76563 667.3665a125.633387 125.633387 0 0 0 57.703706-4.139084c1.460853 5.843413-4.139084 7.791218-5.599937 11.930302h-51.616818c-0.243476-2.921707-0.243476-5.356462-0.486951-7.791218zM556.341647 670.288207a139.511494 139.511494 0 0 0 48.695111-2.434756c2.678231 0 4.626036 0 5.599938 3.408658s-9.495547 2.434756-12.417254 6.817316h-29.947493c-2.678231-4.38256-11.199876-0.486951-11.930302-7.791218z" fill="#B5C4E1" p-id="33854"></path><path d="M703.400883 351.335228c0-3.652133 0-7.547742 3.652133-9.739022a85.45992 85.45992 0 0 1 26.29536 30.434444c-3.408658 0-6.817316 0-9.008595 2.678231h-3.165183c-3.165182-9.495547-12.417253-15.33896-17.773715-23.373653z" fill="#9DC5DC" p-id="33855"></path><path d="M330.883281 519.333362c9.252071-13.391156 18.260667-2.19128 27.512738 0l-3.408658 6.086889c-8.76512 0-19.72152 10.225973-24.10408-6.086889z" fill="#B5C4E1" p-id="33856"></path><path d="M724.339781 374.708881c2.19128-3.165182 5.599938-2.678231 9.008595-2.678231a76.451325 76.451325 0 0 1 12.173778 24.347556h-8.278169z" fill="#598ABF" p-id="33857"></path><path d="M357.909068 498.150989a20.208471 20.208471 0 0 0-11.686827-3.165183c-1.460853-5.356462-10.712924-7.304267-6.817315-14.608533 1.460853-2.921707 4.626036-2.19128 7.791218-1.460853a12.417253 12.417253 0 0 1 10.712924 14.852009 26.29536 26.29536 0 0 0 0 4.38256zM676.618572 669.801256c9.495547 2.678231 17.286765-10.9564 27.269262-2.921707v7.791218H677.348998zM714.600758 668.827354a69.877485 69.877485 0 0 1 24.347556-2.434756v8.278169h-23.617129c-0.243476-1.460853-2.434756-3.408658-0.730427-5.843413zM634.253825 670.044732c10.712924 1.947804 19.234569-11.199876 30.434444-3.408658l-11.930302 8.521644h-12.173778a6.086889 6.086889 0 0 1-6.330364-5.112986z" fill="#B5C4E1" p-id="33858"></path><path d="M805.417141 653.731869c-4.139084-14.852009 5.112987-15.33896 15.582436-14.608533 0 3.408658 0 7.060791 2.921706 9.252071l-18.017191 9.008596zM496.203184 675.644669h33.112676a24.347556 24.347556 0 0 1-33.112676 0zM758.182883 675.644669h32.8692a24.347556 24.347556 0 0 1-32.8692 0zM652.757967 675.157718l11.930302-8.521644a18.747618 18.747618 0 0 1 11.930303 3.165182v5.356462a61.842791 61.842791 0 0 1-23.860605 0zM381.769673 540.27226c11.686827-1.704329 17.043289 4.38256 18.260666 15.33896a33.356151 33.356151 0 0 1-18.260666-15.33896zM556.341647 670.288207c0 7.304267 9.252071 3.408658 11.930302 7.791218-8.034693 5.356462-13.634631 2.434756-18.017191-5.112987v-3.408658zM797.138972 675.157718c1.460853-4.139084 7.060791-6.086889 5.599938-11.930302h3.408658c3.652133 3.652133 4.626036 7.791218 0 11.199876s-5.599938 5.843413-9.008596 0.730426zM598.706393 678.079425c2.921707-4.38256 10.225973 0 12.417254-6.817316 3.165182 0 6.57384 0 8.76512 2.921707-6.330364 5.112987-12.904204 9.252071-21.182374 3.895609zM714.600758 668.827354c-1.704329 2.434756 0 4.38256 0 6.330364h-12.417253v-7.791218zM486.951113 668.583878l2.434756 6.57384c-6.086889 0-9.495547 0-9.252072-7.547742z" fill="#CEE3EF" p-id="33859"></path><path d="M752.095994 404.89985c-5.843413 0-6.57384-4.139084-6.330364-8.76512 5.112987 0.730427 6.817316 3.895609 6.330364 8.76512z" fill="#598ABF" p-id="33860"></path><path d="M739.435265 674.670767v-8.278169h5.599938v7.304267z" fill="#CEE3EF" p-id="33861"></path><path d="M774.739221 493.038002l-1.460854-7.304267c5.843413 1.217378 7.547742 3.652133 1.460854 7.304267z" fill="#9DC5DC" p-id="33862"></path><path d="M640.584189 675.644669h6.086889c0 2.19128 0 4.38256-3.165182 4.38256s-2.678231-2.434756-2.921707-4.38256zM685.870643 675.644669h5.843413c0 2.19128 0 4.38256-2.921707 4.38256s-2.678231-2.434756-2.921706-4.38256zM721.905025 675.644669h5.843413c0 1.947804 0 4.38256-2.921706 4.38256s-2.678231-2.19128-2.921707-4.38256z" fill="#CEE3EF" p-id="33863"></path><path d="M806.147568 663.470891H803.469336a8.76512 8.76512 0 0 1 2.678232-9.495546v3.895609z" fill="#B5C4E1" p-id="33864"></path><path d="M823.921283 648.375407l1.460854-3.895609-2.19128 3.408658z" fill="#CEE3EF" p-id="33865"></path><path d="M827.816892 636.201629v-4.626035c2.678231 1.460853 3.895609 2.921707 0 4.626035z" fill="#598ABF" p-id="33866"></path><path d="M369.595895 453.351486v-1.947804l1.947804 1.217378z" fill="#B5C4E1" p-id="33867"></path><path d="M365.213335 511.298669q-3.165182-1.460853 0-2.921707z" fill="#EAF0E6" p-id="33868"></path><path d="M779.121781 519.576838c-2.434756 3.895609-9.252071 1.217378-10.9564 7.060791l10.469449 4.139084c4.626036 7.547742 9.008596 15.33896 14.365058 22.399751s6.817316 11.930302 0 18.017192c-11.443351 9.739022 0 19.234569 0 28.973591-6.817316 0-6.817316-6.086889-9.739023-9.739022s-7.547742-9.495547-14.608533-5.112987a58.677609 58.677609 0 0 0-38.225662 0v2.678231c-17.53024-1.460853-15.825911 10.225973-14.852009 21.425849-10.712924-4.626036-20.208471 3.408658-30.677921 3.652133s-10.9564-1.947804-11.930302-8.76512 6.57384-11.686827 11.686827-17.286764c-9.495547-2.921707-12.904204 3.895609-17.773716 7.547742s-7.791218-5.356462-11.686826 0c-5.599938-3.895609-2.19128-9.495547-2.921707-14.365058 18.260667-8.521644 40.903893-6.330364 56.729805-21.9128 1.460853-1.460853 5.843413 0 8.76512 0h3.408657c0 4.626036 2.434756 5.843413 6.817316 6.086889 10.9564 0 22.643227-3.652133 30.67792 8.76512 2.19128 3.408658 22.643227-7.791218 22.643227-12.417253s0-8.521644-3.652134-11.930303-11.199876 2.19128-16.069386 3.895609c-3.165182-7.060791 4.869511-12.904204 0-20.208471l-27.512738 19.964996c-1.217378-10.469449-8.034693-1.947804-11.686827-3.408658 0-5.112987-1.704329-10.469449 3.165182-15.095485a16.069387 16.069387 0 0 0 1.704329-22.643226c-2.921707-3.895609-1.947804-8.521644-2.678231-12.904205 6.086889-9.252071 0-15.582436-5.843413-21.669324l6.086889-5.599938c3.895609 2.19128 4.38256 8.034693 9.739022 8.76512 2.678231 4.626036 8.278169 6.817316 9.252071 12.660729-5.599938 5.843413-2.434756 13.14768-3.408658 19.72152a12.173778 12.173778 0 0 0 16.069387 7.547742c5.843413-1.704329 8.278169-3.895609 7.304267-9.739022 6.57384 1.217378 9.495547 8.034693 15.33896 9.495547z" fill="#82C6DF" p-id="33869"></path><path d="M718.252892 558.045976c-2.921707 0-7.304267-1.460853-8.76512 0-15.825911 15.582436-38.469138 13.391156-56.729805 21.9128-5.843413 0-11.686827 0-15.095485 5.356462-5.843413 0-5.112987 9.495547-11.686826 9.008595-9.495547-12.660729-18.504142-8.278169-27.269263 0a99.824978 99.824978 0 0 0-54.295049-19.72152c-2.678231-4.869511-9.495547-7.304267-9.008595-14.121582 6.57384-3.652133 15.825911 10.9564 20.695422-3.165182a46.990782 46.990782 0 0 0 38.712614 9.739022 46.503831 46.503831 0 0 1 27.756213 0c7.060791 2.434756 12.173778 0 14.121582-6.330364s7.304267-9.739022 12.173778-6.817316c13.634631 8.521644 12.417253-2.434756 15.33896-9.982498v13.391156a210.606356 210.606356 0 0 0 22.156276-16.799814c7.547742-7.060791 18.260667-12.904204 16.312862-26.29536 5.843413 6.57384 7.791218 1.704329 8.521645-3.408657s3.165182-13.391156 11.930302-14.365058c0 4.38256 0 9.008596 2.678231 12.904204a16.069387 16.069387 0 0 1-1.704329 22.643227c-4.869511 4.626036-2.921707 9.982498-3.165182 15.095484z" fill="#C59752" p-id="33870"></path><path d="M441.421184 628.410411c9.252071 5.112987 24.347556 0 24.347556 8.76512s-13.878107 6.817316-21.425849 9.739023a18.504142 18.504142 0 0 0-10.712925 7.791217 16.799813 16.799813 0 0 1-10.225973 8.034694c-15.33896 5.112987-32.382249 1.217378-34.817005-7.791218a39.929991 39.929991 0 0 1 20.695422-39.199565 133.911556 133.911556 0 0 1 56.48633-2.19128c2.921707 0 7.791218 1.217378 7.304266 5.843414s-4.38256 5.112987-8.034693 5.599938zM658.844856 643.018945c-11.930302 13.878107-29.704018 20.208471-32.382249 13.14768-4.139084-11.686827 5.843413-19.478045 12.660729-26.782311a24.347556 24.347556 0 0 1 37.495236 1.704328c5.112987 6.330364 8.034693 4.626036 11.443351 0 9.495547-14.365058 22.643227-10.469449 34.573529-5.599937s8.278169 16.069387 6.330364 24.347555-9.739022 8.278169-17.043289 8.034694-8.034693-7.547742-11.443351-12.904205c-8.034693 3.652133-10.9564 14.852009-21.9128 13.14768s-18.260667-0.730427-19.72152-15.095484zM573.384936 660.79266l-21.425849-3.408657c-7.060791 0-14.852009-1.947804-16.312863-10.225974a20.695422 20.695422 0 0 1 7.791218-21.425849 22.886702 22.886702 0 0 1 22.643227-2.678231 9.252071 9.252071 0 0 1 5.112987 11.199876c0 4.626036-6.330364 11.199876 2.678231 13.14768s10.712924-4.38256 12.904204-10.9564a20.695422 20.695422 0 0 1 28.48664-13.634631c6.57384 1.947804 7.547742 4.869511 6.330365 10.9564-3.165182 15.582436-14.852009 24.347556-37.008285 26.051884z" fill="#FDFDFD" p-id="33871"></path><path d="M502.290073 592.86298c-10.225973-5.599938-25.808409-4.869511-26.29536-21.9128 13.391156 0 16.069387-7.547742 13.878107-18.747618 3.895609 0 6.330364-1.217378 6.817315-5.356462a60.625414 60.625414 0 0 1 24.347556-6.086889c8.034693 4.869511 7.547742 13.14768 9.008596 20.938898v15.095484l-3.165183 5.843414-9.008595 3.408658c-3.652133 0-6.086889 1.947804-9.008596 3.165182-2.678231-5.356462 3.652133-16.799813-3.165182-16.312863-10.712924 0 2.921707 10.469449-1.947805 15.582436 0 0 0 2.434756 1.460854 3.895609z" fill="#CEE3EF" p-id="33872"></path><path d="M793.97379 655.192723a117.355218 117.355218 0 0 1-48.695112 1.704328c-3.895609 0-8.278169-3.408658-7.304266-8.034693s0-17.286765 9.008595-20.938898a73.042667 73.042667 0 0 1 56.486329-1.704329c-14.365058 3.895609-8.76512 26.29536-28.48664 19.964996 5.599938 4.139084 13.391156 0 18.991094 9.008596zM502.533549 657.384003h-10.225974c-3.408658 0-16.069387 0-18.504142-6.817316a24.347556 24.347556 0 0 1 29.947493-28.48664c4.139084 1.217378 8.034693 4.38256 6.817316 8.521644-3.408658 11.686827 2.434756 15.33896 12.417253 16.312863 2.921707 0 6.817316 0 6.817316 4.626035s-4.38256 4.626036-7.791218 4.869511-12.904204 0-19.234569 1.460854z" fill="#FDFDFD" p-id="33873"></path><path d="M544.411344 575.576216a99.824978 99.824978 0 0 1 54.295049 19.72152 12.660729 12.660729 0 0 1-21.669324 4.869511 48.695111 48.695111 0 0 0-19.478045-8.521645c-5.843413-3.408658-14.121582-3.652133-16.312862-12.173778z" fill="#82C6DF" p-id="33874"></path><path d="M794.217265 600.167247c0-9.739022-11.686827-19.234569 0-28.973591a16.799813 16.799813 0 0 1 13.634631 3.652133c3.165182 2.921707 12.904204 4.38256 8.521645 8.278169s0 26.538836-18.504142 22.156275z" fill="#EAF0E6" p-id="33875"></path><path d="M625.975656 594.323833c6.57384 0 5.843413-8.278169 11.686826-9.008595 0 6.57384 8.278169 10.712924 6.086889 18.017191l-3.652133 2.434756c-12.417253 1.947804-23.130178 14.852009-37.25176 3.652133 2.19128-11.930302 15.825911-9.495547 23.130178-15.095485zM751.365567 597.24554v3.165182c-9.008596 1.947804-4.869511 9.495547-6.330364 14.852009-11.686827 9.982498-19.234569 0-27.512738-5.599938 11.686827 0 9.982498-11.199876 13.14768-18.260666a17.286765 17.286765 0 0 1 20.695422 5.843413zM557.072073 597.489016c3.408658 2.434756 1.947804 4.869511 0 7.060791s-26.29536 0-29.704018-7.547742c4.38256-5.356462 1.460853-9.982498 0-14.852009 2.678231 0 4.869511 0 6.086889-2.921707h6.57384c-4.38256 15.825911 3.652133 19.72152 17.043289 18.260667z" fill="#82C6DF" p-id="33876"></path><path d="M751.365567 597.24554a17.286765 17.286765 0 0 0-20.208471-5.843413v-3.408658-2.678231a58.677609 58.677609 0 0 1 38.225663 0v3.165182c1.704329 7.791218-6.086889 6.57384-9.252072 9.739022s-5.356462-10.469449-8.76512-0.973902z" fill="#9DC5DC" p-id="33877"></path><path d="M643.749371 603.332429c2.19128-7.304267-5.843413-11.443351-6.086889-18.017191s9.252071-5.843413 15.095485-5.356462c0 4.869511-2.678231 10.469449 2.921707 14.365057zM730.42667 587.993469v3.408658c-3.165182 7.060791-1.460853 17.53024-13.147681 18.260666h-1.947804c-0.243476-11.443351-1.947804-23.130178 15.095485-21.669324z" fill="#598ABF" p-id="33878"></path><path d="M557.072073 597.489016c-13.391156 1.460853-21.425849-2.434756-18.260666-17.773716h2.434755c2.19128 8.521644 10.469449 8.76512 16.312862 12.173778-0.243476 1.704329-0.243476 3.652133-0.486951 5.599938z" fill="#CEE3EF" p-id="33879"></path><path d="M761.10459 598.219442c3.165182-3.165182 10.9564-1.947804 9.252071-9.739022 4.38256 3.165182 11.199876 7.060791 6.817315 12.417253s-11.443351 3.408658-16.069386-2.678231z" fill="#598ABF" p-id="33880"></path><path d="M667.3665 594.567309c4.869511-3.652133 8.278169-10.469449 17.773716-7.547742-5.112987 5.599938-11.930302 9.252071-11.686827 17.286764a10.469449 10.469449 0 0 1-6.086889-9.739022z" fill="#9DC5DC" p-id="33881"></path><path d="M504.481353 591.889078c0-1.460853-1.947804-3.652133-1.460853-3.895609 4.869511-5.112987-8.76512-14.852009 1.947804-15.582436 6.817316 0 0 10.9564 3.165182 16.312863zM745.522154 615.262731c1.460853-5.356462-2.678231-12.904204 6.330364-14.852009-0.243476 5.599938 9.252071 15.582436-6.330364 14.852009z" fill="#598ABF" p-id="33882"></path><path d="M526.150678 582.150056c2.434756 4.869511 5.356462 9.495547 0 14.852009-3.652133-3.652133-10.469449-4.38256-9.982498-11.443352z" fill="#9DC5DC" p-id="33883"></path><path d="M640.097238 606.01066l3.652133-2.434755z" fill="#598ABF" p-id="33884"></path><path d="M466.255691 456.029717c7.791218-2.678231 12.904204-9.008596 7.547742-15.33896s0-14.121582 1.460853-20.695422c3.408658-1.947804 2.921707-4.38256 0-6.57384-2.19128-10.469449-9.495547-12.660729-18.747618-11.443351a45.529929 45.529929 0 0 1 35.060481-38.712614 109.077049 109.077049 0 0 1 59.894986 7.547743 120.276925 120.276925 0 0 1 48.695112 24.347555c-5.356462 4.139084-10.712924 8.521644-16.312863 12.173778-21.425849 14.121582-37.982187 33.843102-58.921084 48.695111-2.19128-12.660729-12.660729-12.173778-21.669325-14.121582-1.947804 0-4.38256 0-4.38256 2.434756 0 7.547742 7.791218 11.199876 10.712925 17.53024 0 1.217378 3.165182 1.947804 4.869511 2.921706a17.773716 17.773716 0 0 1-12.904205 15.582436 91.303334 91.303334 0 0 0-35.06048-17.773716z m13.634631-74.50352c6.57384 6.086889 7.547742 13.634631 15.582435 13.634631 0 0 2.678231-2.19128 2.434756-2.678231a16.069387 16.069387 0 0 0-18.017191-10.9564z" fill="#CCAE8F" p-id="33885"></path><path d="M724.339781 374.708881l12.904204 21.182374 16.799813 48.695111c-9.495547 0-18.747618 1.947804-23.130177 12.173778h-5.843414l-18.991093 2.678231a11.930302 11.930302 0 0 0-11.686827-5.843413c-6.57384-2.678231 0-15.095485-9.495547-14.852009a18.747618 18.747618 0 0 1-19.234569-10.712925 17.286765 17.286765 0 0 0-16.556337-7.791217 22.643227 22.643227 0 0 0-14.608534-11.686827 89.112054 89.112054 0 0 1-25.808409-12.173778 153.876552 153.876552 0 0 1 76.207849-21.425849c12.417253-1.217378 24.347556 0 37.495236 0z" fill="#C0D2AE" p-id="33886"></path><path d="M608.688891 396.378206a89.112054 89.112054 0 0 0 27.025787 11.686827 22.643227 22.643227 0 0 1 14.608533 11.686826c-8.278169-2.434756-14.608533 10.225973-20.451946 5.843414-11.930302-9.008596-24.347556 7.547742-34.817005-1.704329a6.086889 6.086889 0 0 0-3.408658 2.19128c-3.408658 12.660729-14.365058 10.225973-24.347555 11.443351a17.53024 17.53024 0 0 0-12.904205 7.547742c-9.739022 11.686827-15.582436 26.782311-29.217067 35.303956-3.408658 2.19128-4.869511 5.599938-2.434755 8.278169 7.791218 9.008596-1.947804 11.686827-5.599938 16.556338l-22.156276-3.165182c14.852009-4.38256 18.504142-9.252071 8.034694-16.312863v-4.869511a17.773716 17.773716 0 0 0 12.904204-15.582436 14.608533 14.608533 0 0 0 10.469449-8.76512c20.938898-14.852009 37.495236-34.573529 58.921085-48.695111 5.599938-3.652133 10.9564-8.034693 16.312862-12.173778z" fill="#73582E" p-id="33887"></path><path d="M457.00362 401.978144c9.252071-1.217378 16.556338 0 18.747617 11.443351a59.651511 59.651511 0 0 0 0 6.57384 31.408347 31.408347 0 0 0-24.347555 11.930302c-19.234569 5.356462-14.121582-8.76512-14.608534-18.260666l15.33896-3.408658 2.434756-5.599938 3.165182-3.165182z" fill="#CEE3EF" p-id="33888"></path><path d="M454.081913 404.89985l-2.434756 5.599938zM457.247095 401.734668l-3.165182 3.165182z" fill="#CCAE8F" p-id="33889"></path><path d="M462.603557 535.646224h-9.008595c-3.652133-7.791218-13.391156-6.086889-18.260667-12.173778h-1.947804c-1.217378-9.252071-10.9564-10.712924-15.825912-17.53024a57.216756 57.216756 0 0 0 21.669325-3.895608c3.408658 0 8.034693 1.704329 7.547742-3.895609s-4.626036-8.278169-10.469449-7.791218l-3.165182-3.408658v-14.608533c14.852009-9.495547 22.886702 8.278169 35.06048 9.252071a19.964996 19.964996 0 0 0 6.57384 0c0 11.686827-10.225973 20.938898-9.739022 33.112675-4.626036 5.112987 7.791218 13.634631-2.434756 20.938898z" fill="#CEE3EF" p-id="33890"></path><path d="M465.281788 513.246473c0-12.173778 9.008596-21.425849 9.739023-33.112676 1.947804-3.895609 6.817316-2.19128 9.739022-4.38256-6.086889-5.599938-18.017191-1.947804-18.260667-13.878106a91.303334 91.303334 0 0 1 36.277858 18.991093V486.951113c-9.495547 5.843413-9.252071 15.095485-8.278169 24.347556-4.38256 5.112987-8.76512 9.982498-16.312862 9.008595-2.19128-7.547742 12.904204-11.930302 6.086889-16.799813s-10.712924 7.547742-17.53024 10.225973zM436.064722 522.011593c4.869511 6.086889 14.608533 4.38256 18.260666 12.173778a48.695111 48.695111 0 0 0-28.48664 12.660729h-4.38256c0-5.356462-3.408658-8.278169-6.817315-11.443351 3.895609-7.547742 7.304267-16.069387 18.747618-12.417254 0.730427 1.460853 1.704329 1.217378 2.678231-0.973902z" fill="#9DC5DC" p-id="33891"></path><path d="M451.160206 431.925637c8.034693 1.947804 7.060791 7.060791 3.895609 12.173778s-6.57384 9.252071-10.225973 14.365058c-8.76512-12.173778 5.843413-17.53024 6.086889-26.29536z" fill="#CEE3EF" p-id="33892"></path><path d="M436.308197 488.898917c5.843413 0 9.982498 1.947804 10.469449 7.791218s-4.139084 3.895609-7.547742 3.895609z" fill="#9DC5DC" p-id="33893"></path><path d="M432.656064 471.612153c-3.408658-1.217378-8.278169 1.217378-10.712925-4.38256 5.112987-2.921707 8.034693 0 11.443352 3.408658z" fill="#CEE3EF" p-id="33894"></path><path d="M433.143015 486.951113l3.165182 2.678231h-9.982498c1.947804-4.38256 4.626036-2.678231 6.817316-2.678231zM466.255691 456.029717V462.603557c-1.704329 0-4.626036 0-4.626036-2.19128s2.434756-3.895609 4.626036-4.38256z" fill="#9DC5DC" p-id="33895"></path><path d="M412.447593 386.639184L413.908446 389.56089h-1.460853z" fill="#FDFDFD" p-id="33896"></path><path d="M815.156163 537.350553l2.678231 5.843414c-5.599938 9.982498-14.608533 2.921707-22.643226 5.599937a18.017191 18.017191 0 0 1 8.034693-11.443351c1.947804 2.921707 3.652133 3.408658 5.599938 0h6.330364zM803.469336 528.098482c6.330364 0 6.330364 4.626036 6.330365 9.008596h-3.895609z" fill="#82C6DF" p-id="33897"></path><path d="M805.904092 537.107078h2.921707c-1.947804 3.408658-3.652133 2.921707-5.599938 0z" fill="#9DC5DC" p-id="33898"></path><path d="M489.87282 552.202562c2.19128 11.199876 0 18.991093-13.878107 18.747618-1.217378-5.112987-2.678231-10.225973-4.139084-15.33896a24.347556 24.347556 0 0 1 15.33896-3.408658h2.678231z" fill="#82C6DF" p-id="33899"></path><path d="M486.951113 552.202562a24.347556 24.347556 0 0 0-15.33896 3.408658c-3.895609-1.704329-6.330364-6.330364-11.443351-5.599938 1.460853-3.165182-5.843413-8.278169 2.434755-9.739022a50.155965 50.155965 0 0 0 24.347556 7.547742z" fill="#B5C4E1" p-id="33900"></path><path d="M441.908135 567.298047c0-5.356462-2.921707-15.095485 9.008596-9.495547v4.139084c0 1.217378 7.791218 9.739022 0 13.391156s-4.626036-6.57384-9.008596-8.034693z" fill="#417DB5" p-id="33901"></path><path d="M730.42667 456.029717c4.38256-10.225973 13.634631-11.686827 23.130177-12.173777v38.225662c0 12.660729-4.139084 10.9564-11.443351 10.469449 0-5.843413-6.57384-8.034693-9.252071-12.660729s6.57384-17.286765-2.434755-23.860605z" fill="#B0C1A3" p-id="33902"></path><path d="M763.539345 511.298669c0 5.843413-1.460853 8.034693-7.304266 9.739022a12.173778 12.173778 0 0 1-16.069387-9.739022c9.252071 3.408658 14.365058-4.139084 20.451947-8.278169zM763.782821 501.316171l-3.165182 2.678231z" fill="#B5C4E1" p-id="33903"></path><path d="M486.951113 547.820002a50.155965 50.155965 0 0 1-24.347556-7.547742V535.646224c9.495547-6.330364-2.921707-14.852009 1.947805-21.425849h1.460853c6.817316-2.678231 10.712924-15.33896 17.53024-10.225973s-8.278169 9.252071-6.086889 16.799813c-1.947804 6.817316-1.217378 7.791218 1.217378 5.843414a24.347556 24.347556 0 0 1 16.556338-2.678231h1.704329v-1.704329c0-3.652133 0-8.034693-2.19128-11.199876 0-9.739022 0-18.991093 8.278169-24.347556 10.469449 7.060791 6.817316 11.930302-8.034694 16.312863l22.156276 3.165182a73.042667 73.042667 0 0 0 2.434756 26.29536h-13.391156c-5.112987 0-11.686827-3.165182-15.095485 2.921707s6.086889 7.060791 6.086889 12.173778z" fill="#417DB5" p-id="33904"></path><path d="M733.835327 552.446038l27.512738-19.964996c5.599938 7.304267-2.434756 13.14768 0 20.208471 4.869511-1.704329 9.008596-8.521644 16.069387-3.895609s3.652133 7.791218 3.652133 11.930303-20.451947 15.825911-22.643226 12.417253c-8.034693-12.417253-19.72152-8.76512-30.677921-8.76512-4.38256 0-6.57384-1.460853-6.817315-6.086889z" fill="#598ABF" p-id="33905"></path><path d="M724.339781 498.394464c-8.76512 0-10.712924 7.060791-11.930303 14.365058s-2.678231 9.982498-8.521644 3.408658-4.139084-5.112987 0-8.034694 6.817316-9.008596 0-13.634631c-2.678231-1.704329-3.895609-5.599938-5.843414-8.278169 4.869511-4.869511 14.365058-5.356462 14.852009-14.852009l6.086889 5.356463c5.843413 6.086889 11.443351 12.417253 5.356463 21.669324z" fill="#CCAE8F" p-id="33906"></path><path d="M718.496367 476.72514l-6.086889-5.356463a13.391156 13.391156 0 0 1-6.330364-12.417253l18.991093-2.678231c0 4.869511 4.139084 9.982498 0 14.852009z" fill="#B0C1A3" p-id="33907"></path><path d="M724.583256 471.125202c4.626036-4.869511 0-9.982498 0-14.852009H730.42667c8.521644 7.060791 1.460853 16.069387 3.408657 24.347556-4.869511-1.460853-5.356462-7.304267-9.252071-9.495547z" fill="#B5C4E1" p-id="33908"></path><path d="M733.835327 552.446038l-12.173778 5.843413h-3.408657c1.217378-2.921707 2.678231-5.843413 3.895609-9.008596 3.652133 1.217378 10.469449-7.304267 11.686826 3.165183z" fill="#9DC5DC" p-id="33909"></path><path d="M697.557469 486.951113c1.947804 2.678231 3.165182 6.57384 5.843414 8.278169 7.547742 4.626036 6.817316 9.252071 0 13.634631s-6.086889 5.112987 0 8.034693c1.947804 13.391156-8.76512 19.234569-16.312863 26.295361a210.606356 210.606356 0 0 1-22.156275 16.799813v-13.391156c-2.921707 7.547742-1.704329 18.504142-15.33896 9.982498-4.869511-2.921707-10.469449 0-12.173778 6.817316s-7.060791 8.76512-14.121582 6.330364a46.503831 46.503831 0 0 0-27.756214 0 46.990782 46.990782 0 0 1-38.712613-9.739022c-3.165182-2.434756-10.9564-2.921707-3.895609-9.739022 1.947804-1.460853 3.652133-3.895609 0-5.112987-9.739022-2.921707-14.365058-14.121582-24.347556-15.095484 1.217378-10.712924 11.930302-11.930302 17.773716-18.260667 9.495547 10.469449 24.347556 4.626036 34.817004 8.76512 2.921707 0 2.434756-3.408658 3.165183-5.599938 3.652133-8.034693 8.521644-15.33896 12.904204-22.886702a31.651822 31.651822 0 0 1 42.851698-5.112987c20.451947 14.365058 22.156276 13.634631 33.599627-8.278169a59.651511 59.651511 0 0 0 3.165182-24.347556h8.76512c4.139084 11.930302 0.486951 24.834507 11.930302 32.625725z m-56.97328 41.390845c-10.9564-1.460853-22.399751 2.434756-32.8692-3.165183a14.365058 14.365058 0 0 0-18.504142-4.869511c-4.139084 1.947804-3.652133 7.547742-1.947805 10.712925s6.817316 13.878107 16.556338 10.9564a15.33896 15.33896 0 0 1 16.069387 5.112986c2.19128 2.678231 4.139084 5.112987 8.521644 3.652134a54.051574 54.051574 0 0 0 30.921396-37.25176c3.165182-14.121582-4.38256-8.278169-10.225973-6.817316-3.895609-11.686827-16.799813-10.225973-24.347556-16.799813-4.626036 0-10.469449-2.678231-11.199876 5.112986a15.095485 15.095485 0 0 0-14.852009 14.852009c0 3.652133 0 7.304267 5.843414 3.408658 3.408658 0 4.139084 9.008596 9.495547 2.921707 8.76512 2.434756 18.991093 8.278169 17.773715-9.252071 1.460853 6.57384 13.878107 2.434756 11.930302 12.417253-3.652133 1.947804-3.165182 5.599938-3.165182 9.008596z" fill="#DEB361" p-id="33910"></path><path d="M526.394153 528.341958c10.9564 0 15.582436 12.173778 24.347556 15.095484 4.139084 1.217378 2.434756 3.652133 0 5.112987-7.060791 6.817316 0 7.304267 3.895609 9.739022-4.869511 14.121582-14.121582 0-20.695423 3.165182h-5.843413c-1.460853-7.791218 0-16.069387-9.008596-20.938898V535.646224c6.086889 0 6.817316-3.408658 7.304267-7.304266z" fill="#CCAE8F" p-id="33911"></path><path d="M529.559335 561.211158H535.646224c0 6.817316 6.330364 9.252071 9.008596 14.121582l-3.165182 3.895609h-9.008596l-2.921707-2.921707z" fill="#B0C1A3" p-id="33912"></path><path d="M520.307264 535.646224v3.895609a60.625414 60.625414 0 0 0-24.347555 6.086889c0-5.112987-9.008596-6.57384-6.086889-12.173778s9.982498-2.678231 15.095484-2.921706h13.391156zM486.951113 547.820002h9.739022c0 4.139084-2.921707 5.356462-6.817315 5.356462H486.951113zM529.31586 576.306642l2.921707 2.921707c-1.217378 2.678231-3.408658 2.921707-6.086889 2.921707z" fill="#9DC5DC" p-id="33913"></path><path d="M526.150678 456.516668a14.608533 14.608533 0 0 1-10.469449 8.76512c-1.704329 0-4.38256-1.704329-4.869511-2.921706-2.921707-6.330364-10.469449-9.982498-10.712925-17.53024 0-2.678231 2.434756-2.921707 4.38256-2.434756 9.008596 1.947804 19.478045 1.460853 21.669325 14.121582z" fill="#C59752" p-id="33914"></path><path d="M479.890322 381.526197a16.069387 16.069387 0 0 1 18.017191 10.9564s-1.460853 2.678231-2.434756 2.678231c-8.521644 0-8.521644-7.547742-15.582435-13.634631z" fill="#C0D2AE" p-id="33915"></path><path d="M475.264286 419.995335a59.651511 59.651511 0 0 1 0-6.57384c2.921707 2.19128 3.408658 4.626036 0 6.57384z" fill="#B5C4E1" p-id="33916"></path><path d="M520.307264 535.646224v-4.869511a73.042667 73.042667 0 0 1-2.434755-26.29536c3.652133-4.869511 13.391156-7.547742 5.599937-16.556338-2.434756-2.678231 0-6.086889 2.434756-8.278169 13.634631-8.521644 19.478045-24.347556 29.217067-35.303955a17.53024 17.53024 0 0 1 12.904204-7.547743c9.008596 0 19.964996 1.217378 24.347556-11.443351a6.086889 6.086889 0 0 1 3.408658-2.19128c10.9564 9.252071 22.886702-7.304267 34.817004 1.704329 5.843413 4.38256 12.173778-8.278169 20.451947-5.843413a17.286765 17.286765 0 0 1 16.556338 7.791218 18.747618 18.747618 0 0 0 19.234569 10.712924c10.225973 0 2.921707 12.173778 9.495547 14.852009l-8.76512 3.165182h-8.76512c-4.626036-7.791218-9.008596-2.19128-13.634632 0-9.008596 4.869511-17.286765 7.060791-19.72152-7.060791 0-5.843413-4.869511-8.76512-9.008595-3.895609-7.547742 9.252071-24.347556-1.947804-28.48664 12.173778-8.034693-7.791218-14.608533 6.086889-21.425849 1.460853-17.286765-11.443351-20.208471 3.652133-24.347556 13.634632-2.19128 4.869511-3.895609 9.495547-9.008596 10.225973s-19.964996 0-11.443351 14.608533c1.704329 3.165182-4.38256 10.712924 4.38256 13.14768-5.843413 6.330364-16.556338 7.547742-17.773715 18.260667-2.434756 4.139084-3.165182 7.547742-8.034694 7.547742z" fill="#FAE7B8" p-id="33917"></path><path d="M685.627167 456.273193l8.76512-3.165182a11.930302 11.930302 0 0 1 11.686827 5.843413 13.391156 13.391156 0 0 0 6.330364 12.417253c0 9.495547-9.982498 9.982498-14.852009 14.852009-11.443351-7.060791-7.791218-19.964996-11.930302-29.947493z" fill="#F5D379" p-id="33918"></path><path d="M436.064722 522.011593c0 2.19128-1.947804 2.434756-2.921707 0z" fill="#B5C4E1" p-id="33919"></path><path d="M495.959709 522.498544a24.347556 24.347556 0 0 0-16.556338 2.678231c-2.434756 1.947804-3.165182 0-1.217378-5.843413 7.547742 0 11.930302-3.895609 16.312862-9.008596 2.921707 3.408658 1.704329 7.791218 2.19128 11.443352z" fill="#598ABF" p-id="33920"></path><path d="M496.690135 521.768118v1.704328h-1.704329z" fill="#598ABF" p-id="33921"></path><path d="M544.167869 511.298669c-8.76512-2.434756-2.678231-9.982498-4.38256-13.14768-8.521644-15.825911 2.678231-13.391156 11.443351-14.608534s6.817316-5.356462 9.008596-10.225973c4.139084-9.982498 7.060791-24.347556 24.347555-13.634631 6.817316 4.626036 13.391156-9.252071 21.425849-1.460854 5.112987-14.121582 20.938898-2.921707 28.48664-12.173777 4.139084-4.869511 8.034693-1.947804 9.008596 3.895608 2.434756 14.121582 10.712924 11.930302 19.72152 7.060792 4.626036-2.434756 9.008596-8.034693 13.634631 0a59.651511 59.651511 0 0 1-3.165182 24.347555c-11.443351 21.9128-13.14768 22.643227-33.599627 8.278169a31.651822 31.651822 0 0 0-45.042978 3.165182c-4.38256 7.547742-9.252071 14.852009-12.904204 22.886703 0 2.19128 0 6.57384-3.165183 5.599937-11.443351-6.57384-25.321458-0.730427-34.817004-9.982497z m51.373342-38.956089c-1.704329 7.547742-17.043289 2.678231-13.634631 15.095484 0-8.76512 16.312862-3.408658 13.634631-15.095484 0 0 4.139084 0 3.165182-2.434756z" fill="#F5D379" p-id="33922"></path><path d="M649.105834 506.672633c5.843413-1.460853 13.391156-7.304267 10.225973 6.817316a54.051574 54.051574 0 0 1-30.921396 37.25176c-4.38256 1.460853-6.330364 0-8.521644-3.652134a15.33896 15.33896 0 0 0-16.069387-5.112986c-9.739022 2.921707-13.391156-4.38256-16.556338-10.9564s-2.19128-8.76512 1.947805-10.712925a14.365058 14.365058 0 0 1 18.504142 4.869511c0 6.086889 1.947804 10.469449 8.034693 8.76512s17.53024 0 24.347556-5.599937c3.652133-2.19128 3.408658-5.599938 3.165182-9.008596 5.599938-2.921707 1.704329-9.495547 5.843414-12.660729z" fill="#C59752" p-id="33923"></path><path d="M649.105834 506.672633c-4.139084 3.165182 0 9.739022-5.356463 12.660729 1.947804-9.982498-10.469449-5.843413-11.930302-12.417253-10.9564-6.817316-12.660729 4.626036-17.773715 9.252071s-6.086889-2.19128-9.495547-2.921707c1.460853-6.817316 8.521644-10.9564 9.008595-18.260667a14.365058 14.365058 0 0 0 11.199876-5.112986c8.278169 6.57384 20.451947 5.112987 24.347556 16.799813z" fill="#F5D379" p-id="33924"></path><path d="M614.045354 516.16818c5.112987-4.626036 6.817316-16.069387 17.773715-9.252071 1.217378 17.53024-9.008596 11.686827-17.773715 9.252071z" fill="#C59752" p-id="33925"></path><path d="M613.558402 494.985806c0 7.304267-7.547742 11.443351-9.008595 18.260667s-6.086889 0-5.843414-3.408658a15.095485 15.095485 0 0 1 14.852009-14.852009z" fill="#FAE7B8" p-id="33926"></path><path d="M640.584189 528.341958c-7.304267 5.356462-16.556338 3.165182-24.347555 5.599937s-8.76512-2.678231-8.034694-8.76512c9.982498 5.599938 21.425849 1.704329 32.382249 3.165183z" fill="#F5D379" p-id="33927"></path><path d="M624.758278 489.87282a14.365058 14.365058 0 0 1-11.199876 5.112986c0.730427-8.034693 6.57384-5.112987 11.199876-5.112986z" fill="#FAE7B8" p-id="33928"></path><path d="M643.749371 519.333362c0 3.408658 0 6.817316-3.165182 9.008596 0-3.408658-0.486951-7.060791 3.165182-9.008596z" fill="#F5D379" p-id="33929"></path><path d="M595.541211 471.125202c2.678231 11.686827-13.14768 6.330364-13.634631 15.095484-3.408658-12.417253 11.930302-7.547742 13.634631-15.095484zM595.541211 471.125202l3.165182-2.434756c0 3.652133-2.19128 1.460853-3.165182 2.434756z" fill="#DEB361" p-id="33930"></path></svg>