<?xml version="1.0" standalone="no"?><!DOCTYPE svg PUBLIC "-//W3C//DTD SVG 1.1//EN" "http://www.w3.org/Graphics/SVG/1.1/DTD/svg11.dtd"><svg t="1728722775842" class="icon" viewBox="0 0 1024 1024" version="1.1" xmlns="http://www.w3.org/2000/svg" p-id="13059" xmlns:xlink="http://www.w3.org/1999/xlink" width="200" height="200"><path d="M377.28 297.6l-68.16 10.88-62.08 27.2-52.8 33.28-50.24 61.12-28.48 30.08-27.2 10.24-7.36-17.6 12.8-18.24 2.88-25.92 8.64 0.32 9.28 8.32-2.56-26.24-10.24-7.04 0.32-9.92-24.32 13.76-22.08 25.92-4.48 23.36 9.6 18.56 8.96 31.68 17.92 8.32 18.88-0.96 17.92-10.24-11.84 60.48 11.84 67.2-13.12 31.04-42.88 46.4 7.68 27.52 20.48 32 38.4 26.88 20.48 2.88 22.72 0.64-14.08 57.92 51.84 21.12 64.64 8.64 22.08-14.4 1.6-39.04 24.64-40.96 1.6-32.32 59.52 4.16 55.36-5.12-55.36 33.28 9.28 40 34.88 54.4 33.92 14.4 27.2-11.2 11.2-22.08 56.96-43.52 11.2 9.28 89.28 3.52 17.92-14.4 1.6-25.6-6.08-11.2-4.16-68.8-29.76-59.52 5.12-26.24 17.92 9.28 50.24 46.72 24.64 1.6 26.56-10.24 27.2-20.48 13.76-44.16 80 5.12 48.64-18.56 39.04-36.48 28.16-52.8 6.72-62.08-6.08-72.32-15.36-64.64-15.36-20.8-21.12-6.72-37.44 40.96-33.92 11.84-29.76-49.28-30.08-27.52-16-10.24-64.64-53.76-51.84-28.16-51.84-4.16-60.48 10.24-52.8 19.52-36.8 30.08-28.8 34.88-29.76 8.64-52.16 49.28" fill="#FFFF00" p-id="13060"></path><path d="M179.84 451.2c-58.24 68.16-45.44 150.4-29.12 231.36l-25.92-65.28-9.6-59.84 2.88-61.44c8.32-19.52 16.32-39.04 24.64-58.56 12.16-18.24 24.64-36.16 36.8-54.4l57.28-47.68c20.48-8.96 41.6-17.6 62.4-26.24l73.6-9.6-68.16 77.76c-54.72 17.92-87.04 29.76-124.8 73.92" fill="#FFFFCC" p-id="13061"></path><path d="M454.4 243.84c-40.64 39.68-62.72 69.44-88.64 115.84-18.56 33.28-39.04 64.96-58.56 97.6-9.92 16.64-10.88 30.4-13.76 49.6-9.6-11.2-19.2-22.72-28.48-33.92 4.48-13.76 8.96-27.2 13.76-40.96 15.36-27.84 30.72-55.36 46.4-83.2 32.64-32.32 65.28-64.32 97.92-96.64 10.56-2.88 20.8-5.44 31.36-8.32M654.72 145.92c-32.32 12.16-86.4 16.32-90.24 53.44-2.56 26.56 1.92 39.68 17.92 67.84-39.36-40.64-49.28-34.56-125.44-21.76 10.88-15.36 21.76-30.72 32.64-46.4 19.2-11.84 38.08-23.68 57.28-35.52l73.6-16.32c11.52-0.64 22.72-0.96 34.24-1.28" fill="#FFFFCC" p-id="13062"></path><path d="M744.32 649.92c10.88 6.72 10.56 11.52 8.64 16 8.64-3.52 16.96-6.72 25.6-10.24 5.44-7.36 11.2-14.72 16.64-22.4 4.16-10.56 8.32-21.12 12.16-31.68l-15.68-11.84-68.8 8.64c-1.6 4.48-3.52 9.28-5.12 13.76 0.64 6.72 0.96 13.12 1.6 19.84 2.24 3.84 4.48 7.68 6.72 11.84 3.52 1.6 6.72 3.52 10.24 5.12 2.56 0.64 5.12 0.64 8 0.96M737.92 532.48c-34.56 9.92-34.24 12.8-44.48 46.72 13.44-21.44 23.36-32.32 44.48-46.72M966.72 276.8c-6.08 2.88-12.16 4.16-16 9.92-8.32 12.16-15.36 22.08-28.8 30.72-6.72 4.16-14.08 7.04-21.12 9.28-6.08 1.92-9.6 0.32-14.72 3.84 3.2 0.64 6.08 0.96 9.28 1.6h20.16l24.96-15.36c4.8-5.12 9.6-10.24 14.72-15.36 3.52-8.32 7.68-16.64 11.52-24.64M418.24 353.28c-13.44 37.12-25.28 68.8-45.76 102.4 26.24-28.48 42.24-52.48 57.28-84.48 5.76-12.48 7.04-27.2 23.36-21.76 0.64 12.48 3.52 24.96 4.16 37.12 8.96-63.04 33.6-89.6 91.52-113.92l-48.96 5.76c-15.36 3.52-30.72 6.72-46.08 10.24-7.68 10.88-15.04 22.08-22.72 32.96-4.48 10.56-8.64 21.12-12.8 31.68M530.24 351.68c12.48 58.56 30.4 114.88 38.08 174.4 5.12 38.72 5.76 57.28-13.76 90.56-21.12-1.28-34.56 0.96-55.04 7.68-81.92 26.88-128.96 66.24-184-13.12l52.8 24.96c12.48-2.56 24.96-4.8 37.76-7.36 22.08-12.8 44.48-25.92 66.56-38.72 17.28-3.52 34.56-6.72 51.84-10.24 5.76-23.36 11.2-46.72 16.96-70.08l-12.48-92.8c-0.64-14.72-0.96-29.12-1.6-43.84 0.64-7.36 1.92-14.4 2.88-21.44M671.04 714.24c-7.04 47.68 15.68 73.28 6.4 86.4-2.56 3.84-6.4 10.24-10.24 12.16-14.4 6.4-34.24-1.28-35.52 2.56h-47.36c-6.4-2.56-12.8-5.44-18.88-8 9.6-11.52 19.52-23.04 29.12-34.24 9.6-20.8 18.88-41.28 28.48-62.08l18.24-62.72h9.6c6.72 21.44 13.44 43.84 20.16 65.92" fill="#CCCC00" p-id="13063"></path><path d="M591.36 576c3.84 21.76 10.56 26.88 20.8 47.68-6.72 34.24-17.6 74.56-30.72 104.96-5.44 12.8-9.92 19.84-19.84 29.44-16.32 16.64-32.96 31.04-51.52 45.44-13.44 10.24-22.72 5.12-39.36 2.88-7.04 12.8-8.96 19.84-22.08 26.24-19.84 9.92-37.76-11.52-53.44-24 11.2 17.6 22.72 35.2 33.92 52.8 7.68 7.36 15.68 14.72 23.36 22.08l19.84 2.88c8.64-5.44 17.6-10.88 26.24-16 4.48-8.64 9.28-17.6 13.76-26.24 9.6-7.36 19.52-14.72 29.12-22.08 11.84-10.24 24-20.48 35.84-30.72 7.68-10.56 15.04-21.44 22.72-32 6.72-12.8 13.76-25.28 20.48-38.08 8.64-26.24 17.6-52.48 26.24-79.04 0.64-9.92 1.6-19.84 2.24-30.08-10.88-4.8-22.08-9.6-32.96-14.72-7.68-7.68-16.64-14.08-24.64-21.44M328.96 728c36.8 0 75.84-1.92 109.76-17.6 9.6-14.4 18.88-25.92 30.72-38.72-10.56 20.16-14.08 31.36-16.96 54.08-3.52 5.44-7.36 10.56-10.88 16-27.84 0.64-55.68 1.6-83.2 2.24l-27.2-2.88-2.88-2.88c0.32-3.2 0.64-6.72 0.64-10.24M323.84 702.72l-2.88-25.92c-6.4 38.08-4.8 63.36-22.4 97.28-13.12 15.04-29.12 28.8-47.36 36.16 1.6 9.28 2.24 15.04 1.28 21.76-3.2 24.64-52.48 13.76-72.64 12.8l97.28 24.96 22.08-8.64c2.56-14.08 4.8-28.16 7.36-42.24 6.72-12.8 13.76-25.28 20.48-38.08 1.28-7.68 2.56-15.68 3.52-23.36l-6.72-54.72M269.12 488.32c-0.96 18.56-2.24 26.24 6.08 42.56 10.24 20.8 23.04 40.32 34.24 60.48 1.28-13.76 2.56-27.2 3.52-40.96-14.4-20.48-29.12-41.28-43.84-62.08M119.04 627.84l-9.6 20.16c8.64 29.44 16.32 48 32.96 73.6-2.88 10.24-5.12 15.04-11.84 23.36-14.72-2.24-27.52-2.88-42.24-2.88 16.32 12.8 32.64 25.28 48.96 38.08 8-1.6 16-2.88 24-4.48l24-24c-11.52-17.92-23.04-35.52-34.24-53.44-10.24-23.68-21.12-47.04-32-70.4M967.04 267.2c9.92 44.8 22.72 86.08 21.44 131.84-1.6 56.32-12.48 127.04-64.64 160.96-58.24 38.08-126.72 20.16-190.72 3.84 25.92 10.88 52.16 21.44 78.08 32 24.32 1.28 48.64 2.56 72.96 3.52 16.64-4.8 33.28-9.6 49.6-14.72 12.8-10.88 25.92-21.44 38.72-32.32 9.6-20.48 19.52-40.96 29.12-61.44 3.52-23.68 7.36-47.36 10.88-71.04l-8.64-69.44c-5.44-23.04-10.88-45.76-16-68.8-6.72-4.48-13.76-9.6-20.8-14.4M96.64 400.32c-26.56 17.28-36.8 24.64-33.92 56.64 2.56 9.6 5.12 19.2 8 28.8 3.84 2.56 7.36 5.12 11.2 7.68 4.48 1.6 9.28 3.2 13.76 4.48 8.32-1.92 16.64-3.84 24.96-6.08 4.16-13.44 8.64-26.56 12.8-40-11.84 5.76-23.68 11.52-35.52 17.6h-8c-3.2-4.8-6.08-9.6-9.28-14.08 3.84-5.44 7.36-10.88 11.2-16.64 1.92-10.56 3.84-20.8 6.08-31.36 2.56 0.64 5.12 1.6 7.68 2.24l9.28 7.36c-0.32-5.44-0.96-10.88-1.28-16.64-2.24-3.52-4.16-7.04-6.4-10.56a89.6 89.6 0 0 0-6.4-5.12c-1.6 5.44-2.88 10.56-4.16 15.68M690.56 148.8c23.36 21.76 52.48 40.64 71.04 67.52 7.36 10.24 15.36 15.68 0 30.08 16.32-4.8 22.4-4.16 35.52-2.56 23.68 2.88 46.08 36.8 47.68 61.12-0.32 2.24-6.72 7.36-24.96 12.48-0.32 0.64-10.24-1.28-10.24-0.64 1.92 5.12 4.48 6.08 8.32 8.64 0.96 5.76 1.28 14.72 5.44 21.12 11.52-0.32 23.04 0.96 34.24 3.2 3.84 6.4 3.2 12.8 2.88 18.88 4.48-0.64 8.64-1.6 13.12-2.24-1.28-9.92-2.56-19.84-3.52-30.08 3.84-6.72 7.68-13.12 11.84-19.84-5.76-12.8-11.2-25.28-16.96-38.08-10.56-10.24-21.44-20.48-32-30.72h-3.2c-12.16-7.36-24-14.72-36.16-22.08l-58.88-48.32c-14.72-9.6-29.44-18.88-44.16-28.48M730.24 328.96c-1.28 2.24-3.2 5.76-5.44 8 9.92 9.28 14.72 15.36 18.24 28.48-11.2 5.44-22.08 10.88-33.28 16.32-9.28 8.96-18.88 17.92-28.16 26.88-12.48-6.72-15.36-11.84-21.44-24.32-7.04 1.92-13.44 3.52-19.2 1.6 3.52 0 5.76-0.96 9.6-3.2 6.08-6.08 11.84-12.48 17.92-18.56l31.68-24c7.04-2.24 13.76-4.48 20.8-6.72 2.24-0.96 6.72-3.52 9.28-4.48" fill="#CCCC00" p-id="13064"></path><path d="M760.64 361.92c-35.2 18.88-68.8 38.08-87.04 73.92 0.32-45.76 46.08-65.92 87.04-73.92M666.88 272c-26.24 17.92-44.48 53.76-42.24 88.96-8.64-30.4-5.44-58.88 20.8-80 4.48-2.24 8.96-4.16 13.12-6.4 2.56-0.96 5.44-1.92 8.32-2.56" fill="#CCCC00" p-id="13065"></path><path d="M1018.56 354.56c-4.8-29.76-12.48-58.88-23.36-79.68a30.08 30.08 0 0 0-5.76-7.68c-5.44-5.44-13.44-10.24-21.76-13.12-8.64-2.88-17.92-3.52-25.28 0.32a19.52 19.52 0 0 0-5.12 3.84c-5.12 4.8-9.28 10.56-13.12 16.64-4.48 6.4-8.96 13.12-14.4 17.6-6.08 5.44-14.08 8.64-21.44 11.52-3.2-7.68-7.04-15.04-11.2-21.76-5.12-8-10.88-15.68-16.96-23.04-5.12-6.08-10.24-10.88-15.68-14.72-5.44-4.16-10.88-7.68-17.6-11.84-17.28-10.88-32.32-24-47.36-37.12-6.72-6.08-13.76-12.16-20.48-17.6-35.84-29.76-69.44-44.16-105.28-46.4-35.52-2.24-73.28 7.68-117.44 26.24-21.44 8.96-37.44 19.52-51.2 32.64-13.12 12.16-24.32 26.24-36.8 42.88-7.04 0.64-13.44 1.6-20.16 4.16-7.04 2.88-14.4 7.36-23.04 15.04-6.08 5.44-12.16 10.88-17.6 16.32-5.44 5.12-10.56 10.24-15.68 15.68-40.32 6.4-73.28 13.76-102.72 24.96-30.08 11.52-56.64 27.84-84.16 51.84-11.2 9.92-20.8 20.48-29.12 31.36-8.32 10.88-15.36 22.4-21.76 34.24-5.44 6.08-10.88 12.16-16.96 17.6-5.76 5.12-11.84 9.6-18.88 12.16-4.16 1.6-5.76 2.56-5.76 2.24-0.32 0-0.32-0.64-0.64-1.92 9.92-9.6 11.52-23.36 12.48-37.12 1.28 1.28 2.24 3.2 3.52 5.12 1.28 1.92 2.56 4.16 4.16 6.08l6.72 8.64 2.24-10.56c1.92-8.96 3.52-20.8 1.28-31.04-1.6-6.72-4.48-12.48-9.92-16.64 0.64-1.28 0.96-2.56 1.6-3.84 1.6-4.16 3.52-8.64 4.8-12.8l2.88-8.32-8.32 1.92c-11.52 1.92-36.48 15.68-53.76 33.6-6.4 6.72-12.16 14.08-15.68 22.08-3.84 8-5.44 16.64-4.16 25.28 1.28 7.36 5.12 14.72 11.84 21.76 1.28 5.12 2.24 9.28 3.52 13.12 1.28 4.48 2.88 8.32 4.8 12.16 5.12 10.56 13.12 16.96 22.72 20.16 7.68 2.56 16 2.56 24 0.64-1.6 9.28-2.56 18.88-2.88 29.44-0.64 13.76 0 29.12 1.6 46.72 0.32 3.84 0.96 8 1.6 12.8l1.92 11.84c-1.6 4.16-3.2 8.32-4.48 12.48-2.24 6.4-4.8 12.8-7.04 19.52-5.12 5.12-10.56 10.24-15.68 15.68-4.8 4.8-9.92 9.6-14.72 14.4-0.96 0-2.88 1.6-4.16 2.88-9.92 9.6-11.84 11.52-8.96 28.16a102.208 102.208 0 0 0 30.08 57.28c10.56 10.56 27.52 23.36 45.44 30.4 10.24 3.84 20.8 5.76 30.72 4.16-0.64 1.6-0.96 3.2-1.6 4.48-1.6 4.16-3.2 8.64-5.12 12.8-12.48 26.88 0 40.96 19.52 49.6 9.6 4.48 21.12 7.36 32 10.24 2.24 0.64 4.48 1.28 7.04 1.92 12.8 3.52 34.56 9.6 54.72 10.88 21.76 1.28 41.6-3.2 46.72-22.72 2.24-7.68 3.2-13.76 3.84-19.52 0.32-5.44 0.32-10.88-0.32-17.6 6.08-13.76 8.96-17.6 13.44-24.32 0.96-1.28 1.92-2.88 2.24-3.52 4.8-7.36 7.04-12.48 8-18.24 0.96-5.44 0-11.2-0.96-19.52 0-0.96-0.32-1.92-0.32-3.52 12.8 1.6 25.28 2.56 38.08 2.56 6.4 0 12.8 0 19.2-0.64-1.6 0.96-3.2 1.6-5.12 2.56-0.64 0.32-1.6 0.96-2.24 1.28-16.96 8.64-17.6 25.28-12.16 41.92 4.8 15.36 14.72 30.72 20.8 40.32 12.8 19.84 25.28 36.8 40.32 46.08 15.68 9.6 33.6 10.88 56.64-1.92 11.84-6.4 15.36-12.8 20.48-21.76 1.6-2.56 3.2-5.44 5.12-8.32 4.8-3.2 16.96-13.12 28.8-23.04 4.16-3.2 8-6.72 12.8-10.24 3.2 2.24 7.04 3.84 11.52 5.12 6.08 1.28 13.12 1.92 21.44 2.56 6.4 0.32 27.2 0.32 40.32 0.32h9.6c13.76 0 24.96-0.64 33.28-5.44 8.96-5.12 14.4-14.08 15.36-30.4 0.64-7.04 0.64-11.52-0.32-16-0.96-4.16-2.88-8-5.76-13.76-0.32-7.04-0.32-14.08-0.64-21.12-0.32-7.36-0.32-14.72-0.64-22.4-0.32-8.64-1.28-16-2.88-22.72a149.12 149.12 0 0 0-7.68-21.76c-2.24-5.44-4.16-10.24-6.08-15.36l-4.8 1.92 0.64-0.32 4.16-1.6c-2.88-7.68-5.76-15.36-9.6-23.36 0.32-1.6 0.64-3.2 0.64-5.12 2.56 2.56 5.12 4.8 7.68 7.36l11.52 10.88c8.64 8.32 16.64 16 25.92 21.44 9.6 5.76 20.48 8.96 34.56 8.32 14.72-0.64 30.4-6.72 43.2-16.32 12.48-9.28 22.4-21.76 26.88-35.52 1.28-3.84 2.56-8 3.52-11.84l2.88-9.6c20.48 3.52 42.56 4.48 64 2.24 20.48-2.24 40.32-7.36 57.6-16.64 25.28-13.44 44.16-33.28 57.6-56.64 15.04-26.24 23.68-57.28 26.88-89.28 2.56-24.64 1.28-59.52-4.16-93.12zM752 569.6c-11.84-3.84-20.16-9.92-30.4-16.32 2.88 12.8 4.16 26.24 0.32 39.04-6.08 20.16-15.68 53.44 11.84 59.52 10.56 2.24 15.36 1.92 30.08-5.76-11.84 2.56-17.92 1.92-26.24 0.64a16.8 16.8 0 0 1-13.44-11.52c2.56 1.92 6.72 2.88 14.08 4.8 20.48 4.8 39.68-4.8 43.52-18.88 2.24-8.32 1.92-12.48 6.4-24 4.16 1.28 8.64 2.56 13.12 3.52l-7.68 24.64c-6.4 21.44-32 38.72-54.72 38.08-20.8-0.32-33.92-13.44-48.32-26.24-9.92-8.96-19.52-17.28-28.8-25.6-25.92-8.32-46.72-17.6-70.72-35.52 16.96 20.16 28.8 31.36 52.48 41.28-3.52 35.52-15.68 61.12-26.24 95.04-4.8 15.36-42.24 76.8-52.48 82.88-7.36 4.16-53.76 43.2-62.4 48.64-6.4 8.64-12.16 20.48-22.08 25.6-29.76 15.68-48.96-14.4-64.96-40-7.36-11.52-27.52-45.12-9.92-54.4 16.64-8.96 25.92-15.04 43.2-26.24 2.56 4.48 6.72 8.96 9.6 13.44l-1.92-15.04c-0.96-8.96-0.96-16.32-0.32-25.6l1.92-26.56c-2.56 8.96-7.68 17.92-10.24 26.88-0.96 3.52-1.92 6.4-2.24 9.28-38.4 7.68-76.16 8.32-114.56 1.6-2.56-14.08-5.44-28.8-8-39.36-0.64 11.84-0.32 44.48-0.32 63.04 0 14.08-0.64 19.2-8 31.04-6.72 11.2-9.92 13.76-19.52 32.96 0.96 12.16 0.96 20.16-2.24 31.36-5.44 18.88-59.2 4.16-73.28 0.32-17.6-4.8-53.44-11.84-44.48-35.2 8-20.48 13.12-42.24 16.96-70.72-32-46.08-61.76-109.44-67.52-165.44-4.48-43.52-1.92-70.08 7.68-96.96 15.04-42.24 35.84-78.72 69.12-107.84 45.12-39.68 87.36-55.36 153.28-65.6-16 17.92-31.68 36.48-48.64 56.64-17.28 20.48-27.52 40.96-38.72 63.36-15.36 30.72-15.04 42.56 5.12 69.76 17.28 23.36 26.88 33.92 34.24 56.64-6.4 12.8-8.64 23.68-10.56 41.6 21.12 23.36 37.12 39.04 57.6 44.16 20.16 4.8 37.12 3.84 55.36-5.44 40.32-20.48 77.44-47.04 122.88-48.32 21.12-51.52 18.88-94.72 8.64-144.96-7.04-34.24-9.6-66.56-11.84-101.12-8.64 35.84-10.24 67.2-3.84 103.04 7.68 42.88 13.44 90.56-7.68 128.32-40.96 3.2-76.16 28.16-113.28 47.36-15.04 7.68-30.4 8.32-46.72 3.84-15.36-4.16-25.6-14.4-41.92-33.28-0.32-19.2 4.16-27.84 12.8-45.12 14.08-27.84 29.44-53.44 46.72-80.96-20.8 25.28-40.64 46.08-56.96 71.68-6.4-17.92-15.36-26.88-30.08-47.04-14.4-19.52-16-28.16-5.12-51.2 10.88-22.72 20.16-42.88 38.72-63.04 32-34.56 61.44-73.28 96.64-107.52 19.2-18.56 26.88-17.92 52.16-21.76 22.72-3.52 45.12-7.68 68.48-13.12-22.4 2.24-44.48 2.88-66.24 3.52h-0.64c21.44-27.52 34.24-42.88 69.12-58.24 86.4-37.44 141.12-41.6 208.96 15.36 17.92 15.04 33.28 29.44 51.2 42.24-6.4 0.64-12.16 1.6-19.52 4.48 8.96-1.6 19.2 0 28.48 1.6 2.56 1.6 5.44 3.2 8 5.12 12.48 7.36 19.84 11.52 28.16 23.36 8.96 12.48 16.64 24.96 23.04 38.72-4.48-1.6-8-2.88-11.2-3.84a20.896 20.896 0 0 0-7.68-1.92 24.48 24.48 0 0 0-15.04 3.52c-0.32 0-0.32 0.32-0.64 0.32-7.04 3.52-17.6 7.36-24.96 8.32 3.52 1.28 11.84 1.6 15.68 0.32 0.64-0.32 0.96-0.32 1.6-0.64-1.6 2.88-2.88 6.4-3.2 9.92-0.32 4.8 0.64 9.28 2.56 13.44 0.64 1.6 1.6 2.88 2.56 3.84-3.2 1.28-6.72 2.56-10.24 4.16 16-2.56 30.72-2.88 46.4-0.96 0.96 4.8 2.24 10.24 3.2 15.68-1.92 0-3.84 0.32-5.76 0.32h-0.32c-7.36-6.08-15.68-4.8-26.88-2.24-34.56 8-26.24 27.2-42.24 56.32 16.32-20.16 15.36-40.96 41.92-47.36 6.08-1.6 10.56-3.2 14.72-2.56-7.68 3.84-14.08 10.24-16.64 17.6-7.36 20.8-2.88 38.4-10.88 57.6 9.92-17.28 10.56-34.24 19.52-52.48 3.2-6.4 15.04-16.96 22.4-17.28h6.08c1.92 11.52 2.88 23.04 2.24 32.64-1.28 17.28-5.76 43.2-8.32 52.8 8.96-11.52 13.12-36.16 17.28-53.76 4.16-17.92 3.2-39.68-0.64-59.2-5.12-26.56 22.4-22.4 38.4-34.88 11.84-9.28 19.84-24 30.4-34.56 10.56-10.24 27.52 4.8 31.68 15.04 18.24 43.84 26.56 112.96 21.76 157.44-5.44 49.6-29.44 104-73.28 128.32-56 31.36-121.92 12.48-177.6-6.4z m-79.36 220.8c-1.92 20.48-8.64 21.76-26.56 21.44-8.32 0-40.64-0.32-48.96-0.96-11.84-0.96-18.24-1.92-21.76-4.8 18.24-13.44 49.6-69.12 55.68-88.32 6.4-20.16 13.44-37.76 18.56-56.64 2.56 7.68 4.16 15.68 7.68 24 5.76 13.76 8.64 22.4 9.28 37.44 0.32 15.68 0.96 31.36 1.28 47.04 4.8 8.96 5.76 10.88 4.8 20.8zM120 634.88c11.52 40.32 31.36 80 53.44 113.28v0.64c-1.28 5.76-2.88 11.2-6.4 15.68-15.68 21.12-55.68-9.92-67.2-21.76-12.8-12.8-21.12-28.16-23.04-42.56-1.6-10.56 0-10.88 7.36-18.24 9.92-9.92 19.84-19.84 29.44-30.08 2.24-5.44 4.16-11.2 6.4-16.96z m-22.08-253.44c-2.88 6.4-5.12 11.2-6.4 16.32-6.4 21.76 2.88 40.96-16.96 56.64 9.28 18.56 8.96 26.24 30.4 17.6 8.32-3.2 15.04-8 21.12-13.44-2.88 7.68-5.76 15.36-8 23.36-0.32 1.28-0.96 2.56-1.28 3.84-15.36 6.4-35.52 10.56-43.2-5.44-3.84-8-5.76-15.68-8.64-25.6-25.6-26.24 12.16-60.8 32.96-73.28z m12.16 27.84c-3.2-3.2-5.76-5.12-9.6-4.8 0.32-2.56 0.64-5.12 1.28-7.68 0.32-1.28 0.64-2.56 0.96-3.52 5.44 2.88 7.04 8.32 7.36 16z m759.68-98.24c0.96 1.92 1.92 4.16 2.88 6.08-0.64 0.64-1.6 1.28-2.24 1.92a25.824 25.824 0 0 0-5.44-7.68c1.92 0 3.2 0 4.8-0.32zM138.56 430.4z m-82.56 27.84z m277.12 289.6z m228.48 68.16z m92.8-176.32zM100.48 461.76l-0.32-0.32 0.32 0.32z m890.88 73.28zM10.88 455.68c4.16-45.76 12.8-65.28 45.44-99.84-40.64 28.8-50.88 41.6-45.44 99.84" p-id="13066"></path><path d="M0.64 418.24c4.48-20.48 8.64-28.16 21.44-45.12-20.8 14.4-23.36 20.16-21.44 45.12M477.76 131.84c-24.32 5.76-29.12 10.24-36.48 34.24 11.84-17.28 18.56-23.04 36.48-34.24" p-id="13067"></path><path d="M516.16 128.32c-48.32 11.84-62.4 20.16-78.72 76.16 20.48-40.96 36.16-56 78.72-76.16M620.16 332.48c5.12-22.72 14.4-44.8 49.6-61.76-46.72 11.84-55.36 31.68-49.6 61.76M919.36 334.08c27.84-9.92 41.28-32.32 48-58.56-10.88 22.08-27.84 40.64-50.56 51.84-12.16 6.08-20.16 3.84-33.6 2.56 13.44 4.16 22.4 9.28 36.16 4.16M729.6 356.48a31.776 31.776 0 0 0-17.6-16c6.72-3.52 13.44-7.36 18.88-12.16-15.36 7.04-33.28 5.44-46.4 14.08-11.52 7.68-27.52 32.64-39.36 43.2 8.64-3.2 16.64-8.96 24.32-15.04 0 4.48 0.96 8.96 3.2 13.44 3.2 6.4 8 11.2 13.76 14.4-4.16 5.44-7.68 11.84-10.24 18.88 22.4-26.56 55.04-46.72 85.44-55.04-8.64 0-18.56 1.6-28.8 4.8-0.64-3.84-1.6-7.36-3.2-10.56M697.6 557.12c-0.96 6.72-2.56 15.36-3.52 22.4 2.88-7.68 6.4-16.96 9.92-24.32 3.52-8 5.76-8.64 13.12-12.8 5.44-2.88 15.36-7.04 20.48-9.92-5.44 0.96-15.36 2.88-21.12 3.84-15.04 2.56-16.64 6.4-18.88 20.8M443.84 291.84c-17.28 16.96-33.92 75.52-39.36 98.88 8.32-19.52 29.44-73.6 45.76-87.68 4.48-3.84 7.68-6.08 10.88-8-11.52 19.52-10.88 24.32-6.72 50.24 3.52-26.56 12.48-36.8 27.52-56.32 16.32-4.16 31.68-8.96 48.64-15.68-18.88 2.24-38.08 4.16-56.96 5.76-15.68 1.92-18.24 1.6-29.76 12.8" p-id="13068"></path><path d="M678.72 391.36c-3.2-6.72-0.32-14.4 6.4-17.6 6.72-3.2 14.4-0.32 17.6 6.08 0.32 0.64 0.64 1.28 0.64 1.92-6.4 4.8-12.16 10.24-16.96 16.64a16.416 16.416 0 0 1-7.68-7.04M825.6 334.4c0.64-5.44 5.12-9.6 10.56-8.96 5.44 0.64 9.6 5.44 8.96 10.88 0 1.28-0.32 2.24-0.96 3.2-5.12 0.96-9.92 2.24-15.04 4.16-1.92-2.24-3.84-6.4-3.52-9.28" fill="#FFFFCC" p-id="13069"></path></svg>