<?xml version="1.0" standalone="no"?><!DOCTYPE svg PUBLIC "-//W3C//DTD SVG 1.1//EN" "http://www.w3.org/Graphics/SVG/1.1/DTD/svg11.dtd"><svg t="1728723018391" class="icon" viewBox="0 0 1040 1024" version="1.1" xmlns="http://www.w3.org/2000/svg" p-id="20478" xmlns:xlink="http://www.w3.org/1999/xlink" width="203.125" height="200"><path d="M198.45488 452.192l-20.112-39.904c-69.36 27.152-67.088 119.584-67.088 119.584a559.76 559.76 0 0 1 87.232-79.648l-0.032-0.032z m261.696 179.392c-51.776 6.688-132.096 76.768-152.432 67.68 12.672 8.752 84.704 59.312 125.584 58.624 38-1.92 76.064-1.92 114.048 0 0 0 82.72-27.728 93.952-73.088a1175.168 1175.168 0 0 0-181.152-53.088v-0.128zM1010.34288 870.88a164.944 164.944 0 0 0-73.888-53.104c-33.712-4.24-13.392-19.904-13.392-19.904 5.392 0.56 13.392-6.672 13.392-6.672a264.048 264.048 0 0 1-13.392-59.824c100.752 25.296 87.248 139.472 87.248 139.472l0.032 0.032z m-127.552-73.008a187.024 187.024 0 0 1-46.96-6.672c-9.824-3.568-26.848 6.672-26.848 6.672-13.392-17.6 67.056-59.808 67.056-59.808 14.976-6.192 25.488 35.2 26.848 39.888 1.376 4.704-20.096 19.872-20.096 19.872v0.048z m-120.64-226.048c33.584 15.52 63.36 38.208 87.232 66.48a248.688 248.688 0 0 0-221.36-33.216s-74.192 45.728-87.232 19.904c0 0 108.128-100.512 167.76-99.712 59.616 0.8 135.552 10.8 174.464 99.712 0 0-91.024-80.976-120.8-53.104l-0.08-0.08zM198.43888 684.8c17.92-99.6 120.8-66.448 120.8-66.448-21.392 83.824-120.8 66.448-120.8 66.448z m120.8 59.968c-21.76 10.32-44.16 19.2-67.104 26.56a878.816 878.816 0 0 0-134.192 19.904c-75.552 29.44-89.392 4.592-80.432 6.672 15.84-0.544 31.584-2.784 46.944-6.672 16.912-25.76 80.448-33.232 80.448-33.232a224.064 224.064 0 0 0 107.296-53.088l47.04 39.856z m-120.8-46.72l6.752 6.672-6.752 13.344h-13.36a30.912 30.912 0 0 1-6.752-6.672c-1.472-2.768 20.112-13.312 20.112-13.312v-0.032z m825.248 106.192a218.08 218.08 0 0 0-60.352-73.088c-31.296-23.2-12.32-350.048-442.848-412 0 0-62.624 6.656-26.864-186.08h-6.752s-74.896-19.728-114 206.24c0 0-336.576 191.584-369.056 398.784 0 0-41.376 122.928 154.304 53.104 0 0 145.376-18.976 187.856-46.576 0 0-75.856-34.368-40.208-53.12a443.888 443.888 0 0 0 46.96-19.904s40.24-24.384 73.888-46.56c0 0 89.472-11.04 120.8 19.904 0 0 185.584-89.696 288.448 0a247.568 247.568 0 0 1 60.336 66.448 531.68 531.68 0 0 1 26.848 66.496l-6.784 6.56s-17.936-44.272-26.848-66.464a88.064 88.064 0 0 0-33.6 19.92s-95.088 33.232-60.352 86.368a173.936 173.936 0 0 1 87.232-13.36s24.624-6.672 26.864-13.344c0.24 7.152 2.592 14.08 6.752 19.904 0 0 75.84 18.976 87.232 73.088 0 0.24 24.688 14.608 20.208-86.128l-0.08-0.192zM305.95888 698.24a11.36 11.36 0 0 0 3.264 3.152c-2.656-2.8-3.792-4.096-3.264-3.152z" fill="#000000" p-id="20479"></path></svg>