<?xml version="1.0" standalone="no"?><!DOCTYPE svg PUBLIC "-//W3C//DTD SVG 1.1//EN" "http://www.w3.org/Graphics/SVG/1.1/DTD/svg11.dtd"><svg t="1728723977556" class="icon" viewBox="0 0 1024 1024" version="1.1" xmlns="http://www.w3.org/2000/svg" p-id="36212" xmlns:xlink="http://www.w3.org/1999/xlink" width="200" height="200"><path d="M944.224 600.736a44.096 44.096 0 0 0-36.608-29.472 83.808 83.808 0 0 0-29.216 1.632 262.4 262.4 0 0 1-44.992 5.92 868 868 0 0 0 91.904-218.56c30.496-118.048 14.208-171.808-4.832-196.16A263.648 263.648 0 0 0 707.872 64a376.736 376.736 0 0 0-110.496 15.488 411.456 411.456 0 0 0-64.64-5.888 210.08 210.08 0 0 0-112.576 27.744 513.248 513.248 0 0 0-79.488-19.968 246.208 246.208 0 0 0-186.208 29.568C98.976 150.112 73.248 218.208 78.016 313.344a1163.232 1163.232 0 0 0 44.992 209.216 722.528 722.528 0 0 0 48.448 123.616A153.152 153.152 0 0 0 249.6 727.744a76.8 76.8 0 0 0 76.128-16.512 66.56 66.56 0 0 0 16 13.76 106.496 106.496 0 0 0 30.208 12.8 162.208 162.208 0 0 0 105.6-6.4c0.192 5.472 0.352 10.72 0.448 15.264 0.192 7.328 0.416 14.528 0.672 21.28a372.512 372.512 0 0 0 14.112 105.6c0.512 1.376 1.184 3.424 1.888 5.632a127.2 127.2 0 0 0 31.712 55.84 94.56 94.56 0 0 0 66.88 24.864 150.4 150.4 0 0 0 31.264-3.488 146.944 146.944 0 0 0 98.912-57.184c25.952-36.96 38.592-92.608 40.864-180.32l0.832-7.104 0.544-4.64 6.112 0.544h1.568a241.984 241.984 0 0 0 101.216-17.536c20.192-9.376 84.928-43.552 69.664-89.6" p-id="36213"></path><path d="M886.048 609.696c-101.216 20.864-108.16-13.376-108.16-13.376 106.848-158.56 151.52-359.84 112.96-409.088-105.152-134.4-287.2-70.816-290.24-69.184l-0.992 0.192a360.96 360.96 0 0 0-67.52-7.04 166.784 166.784 0 0 0-106.88 32S100.48 9.408 115.584 311.456c3.2 64.256 92.096 486.208 198.112 358.752 38.752-46.592 76.192-86.016 76.192-86.016a98.272 98.272 0 0 0 64.192 16.384l1.824-1.536a70.72 70.72 0 0 0 0.736 18.144c-27.328 30.528-19.2 35.872-73.888 47.104-55.232 11.392-22.784 31.648-1.6 36.96a112.256 112.256 0 0 0 125.28-40.704l-1.6 6.4c10.688 8.576 18.208 55.744 16.96 98.528a271.392 271.392 0 0 0 6.4 95.072c8.448 22.944 16.832 74.528 88.608 59.168a105.824 105.824 0 0 0 95.36-101.728c3.2-39.488 10.016-33.664 10.432-68.96l5.568-16.704c6.4-53.536 1.024-70.816 37.952-62.784l8.992 0.8a204.8 204.8 0 0 0 83.68-14.08c44.992-20.864 71.648-55.744 27.296-46.56" fill="#336791" p-id="36214"></path><path d="M444.224 340.192a31.392 31.392 0 0 0-21.568 3.2 7.904 7.904 0 0 0-3.2 5.248 15.36 15.36 0 0 0 3.744 10.048 28.192 28.192 0 0 0 17.888 11.168 20.384 20.384 0 0 0 2.88 0.192 23.2 23.2 0 0 0 21.984-14.944c1.12-7.936-10.432-13.248-21.632-14.816m302.144 0.256c-0.864-6.24-11.968-8-22.4-6.4s-20.704 6.208-19.84 12.448a21.344 21.344 0 0 0 19.84 13.152 18.944 18.944 0 0 0 2.656-0.192 25.6 25.6 0 0 0 14.432-7.904 16 16 0 0 0 5.408-10.976" fill="#FFFFFF" p-id="36215"></path><path d="M919.712 607.328c-3.872-11.68-16.288-15.424-36.928-11.168-61.28 12.8-83.2 3.872-90.432-1.408a842.464 842.464 0 0 0 107.936-242.08 459.968 459.968 0 0 0 16-104.096 112.416 112.416 0 0 0-16.288-70.4 239.424 239.424 0 0 0-193.568-90.4 331.616 331.616 0 0 0-112 17.632 278.944 278.944 0 0 0-62.976-8.096 181.888 181.888 0 0 0-107.904 29.728 481.632 481.632 0 0 0-87.68-22.976 223.296 223.296 0 0 0-167.744 25.76c-48 34.048-70.4 94.912-65.952 180.896a1135.648 1135.648 0 0 0 43.936 203.136c34.24 112.16 71.456 175.68 110.624 188.8a49.536 49.536 0 0 0 15.712 2.592 65.568 65.568 0 0 0 50.016-28.352q33.344-40 68.96-78.016a111.104 111.104 0 0 0 49.6 13.344v1.344q-4.48 5.312-8.736 10.816c-12 15.2-14.464 18.368-53.056 26.336-10.976 2.272-40.128 8.288-40.544 28.8-0.448 22.4 34.464 31.712 38.4 32.704a164.608 164.608 0 0 0 39.968 5.184 116.288 116.288 0 0 0 80-29.888 757.568 757.568 0 0 0 12.192 181.888 91.328 91.328 0 0 0 87.328 67.2 140.096 140.096 0 0 0 29.344-3.2 110.784 110.784 0 0 0 100.992-102.784c5.664-32.832 15.392-111.2 19.968-153.248a123.488 123.488 0 0 0 35.52 4.384 211.2 211.2 0 0 0 80.608-15.36c22.784-10.592 64-36.512 56.416-59.072z m-150.08-284.128a254.976 254.976 0 0 1-3.712 35.424 327.328 327.328 0 0 0-4.48 41.6 315.488 315.488 0 0 0 3.2 47.04 167.552 167.552 0 0 1-7.328 95.552 124.224 124.224 0 0 1-6.624-13.632c-1.856-4.512-5.92-11.776-11.488-21.792-21.76-39.04-72.768-130.496-46.656-167.808 7.776-11.104 27.52-22.4 77.056-16.384z m-60.064-210.208a211.744 211.744 0 0 1 170.688 80.704c31.2 39.84-3.2 221.184-102.56 377.6l-3.008-3.808-1.248-1.568a176.768 176.768 0 0 0 16.192-121.6 291.648 291.648 0 0 1-3.2-43.264 306.304 306.304 0 0 1 4.192-38.592 243.648 243.648 0 0 0 3.936-47.776 19.808 19.808 0 0 0 0.416-6.72 268.192 268.192 0 0 0-61.184-115.2 275.52 275.52 0 0 0-97.248-73.088 327.872 327.872 0 0 1 72.96-6.848zM303.328 660.928c-20.064 24.128-33.952 19.52-38.4 17.984-29.696-9.92-64.192-72.704-94.56-172.288a1125.344 1125.344 0 0 1-42.88-197.088c-3.84-76.8 14.784-130.368 55.36-159.168 66.016-46.816 174.592-18.784 218.208-4.576-0.64 0.608-1.28 1.184-1.888 1.824-71.584 72.288-69.888 195.808-69.696 203.36 0 2.912 0.224 7.04 0.576 12.8a511.008 511.008 0 0 1-2.592 103.232 130.56 130.56 0 0 0 34.144 109.216q4.256 4.416 8.896 8.384a1782.4 1782.4 0 0 0-67.2 76.32z m76.48-102.08a105.6 105.6 0 0 1-27.68-88.448 534.4 534.4 0 0 0 2.784-108.192 493.504 493.504 0 0 1-0.448-7.776A137.6 137.6 0 0 1 448 327.136a38.016 38.016 0 0 1 29.376 32.832c20.672 95.648 2.72 135.488-11.68 167.52-2.976 6.592-5.792 12.8-8.16 19.2l-1.856 4.992a326.976 326.976 0 0 0-11.776 35.488 89.216 89.216 0 0 1-64-28.384z m3.616 128.96a55.456 55.456 0 0 1-16.736-7.2 81.696 81.696 0 0 1 17.824-5.312c45.376-9.344 52.384-16 67.712-35.36 3.52-4.448 7.488-9.6 12.992-15.648 8.192-9.184 11.968-7.616 18.752-4.8a26.528 26.528 0 0 1 13.056 16.8 18.72 18.72 0 0 1-1.6 15.712 99.2 99.2 0 0 1-111.968 35.84z m237.568 220.992a67.616 67.616 0 0 1-88.128-48.832 996.128 996.128 0 0 1-9.6-219.296 12.544 12.544 0 0 0-0.544-3.968 52.576 52.576 0 0 0-1.536-7.36 50.848 50.848 0 0 0-27.584-33.088 38.912 38.912 0 0 0-25.376-3.2 306.752 306.752 0 0 1 10.944-32.704l1.856-5.024c2.112-5.664 4.736-11.52 7.52-17.728 15.072-33.504 35.744-79.424 13.312-183.104a65.408 65.408 0 0 0-78.976-53.408 182.208 182.208 0 0 0-60.384 18.912c-2.496 1.28-4.8 2.496-6.912 3.68a263.808 263.808 0 0 1 61.376-158.464 150.752 150.752 0 0 1 114.24-42.752 242.144 242.144 0 0 1 184.992 88.416 280.768 280.768 0 0 1 50.624 86.72c-46.816-4.768-78.656 4.48-94.784 27.552-35.2 50.176 19.2 147.584 45.312 194.4 4.8 8.576 8.928 16 10.208 19.2a173.824 173.824 0 0 0 27.552 44.384c2.464 3.2 4.864 6.048 6.656 8.672-14.176 4.096-39.648 13.536-37.312 60.8-1.856 23.68-15.168 134.56-21.952 173.76-8.928 51.744-27.968 71.04-81.536 82.528z m231.744-265.216a182.848 182.848 0 0 1-61.792 12.8 77.504 77.504 0 0 1-41.6-5.344c-1.44-29.408 9.6-32.48 21.12-35.744 1.824-0.512 3.584-1.024 5.312-1.6a43.296 43.296 0 0 0 3.52 2.56c20.448 13.504 56.96 14.944 108.48 4.32h0.576a138.688 138.688 0 0 1-35.712 23.04z" fill="#FFFFFF" p-id="36216"></path></svg>