<?xml version="1.0" standalone="no"?><!DOCTYPE svg PUBLIC "-//W3C//DTD SVG 1.1//EN" "http://www.w3.org/Graphics/SVG/1.1/DTD/svg11.dtd"><svg t="1728722862507" class="icon" viewBox="0 0 1024 1024" version="1.1" xmlns="http://www.w3.org/2000/svg" p-id="14271" xmlns:xlink="http://www.w3.org/1999/xlink" width="200" height="200"><path d="M520.533333 128m-59.733333 0a59.733333 59.733333 0 1 0 119.466667 0 59.733333 59.733333 0 1 0-119.466667 0Z" fill="#2E87FF" p-id="14272"></path><path d="M947.2 418.133333m-59.733333 0a59.733333 59.733333 0 1 0 119.466666 0 59.733333 59.733333 0 1 0-119.466666 0Z" fill="#2E87FF" p-id="14273"></path><path d="M93.866667 418.133333m-59.733334 0a59.733333 59.733333 0 1 0 119.466667 0 59.733333 59.733333 0 1 0-119.466667 0Z" fill="#2E87FF" p-id="14274"></path><path d="M776.533333 913.066667m-59.733333 0a59.733333 59.733333 0 1 0 119.466667 0 59.733333 59.733333 0 1 0-119.466667 0Z" fill="#2E87FF" p-id="14275"></path><path d="M264.533333 913.066667m-59.733333 0a59.733333 59.733333 0 1 0 119.466667 0 59.733333 59.733333 0 1 0-119.466667 0Z" fill="#2E87FF" p-id="14276"></path><path d="M207.1552 853.3504l-94.088533-329.284267 24.610133-7.031466 94.088533 329.386666z" fill="#2E87FF" p-id="14277"></path><path d="M199.031467 380.142933l-15.616-20.292266 244.6336-188.16 15.616 20.2752z" fill="#2E87FF" p-id="14278"></path><path d="M691.8656 879.086933l-526.8992-376.354133 14.882133-20.821333 526.8992 376.354133z" fill="#2E87FF" p-id="14279"></path><path d="M306.978133 844.100267l-24.507733-7.424 188.177067-620.936534 24.507733 7.424z" fill="#2E87FF" p-id="14280"></path><path d="M838.621867 853.3504l-24.610134-7.031467 94.088534-329.284266 24.610133 7.031466z" fill="#2E87FF" p-id="14281"></path><path d="M846.728533 380.142933l-244.616533-188.177066 15.598933-20.2752 244.6336 188.16z" fill="#2E87FF" p-id="14282"></path><path d="M353.911467 879.086933l-14.882134-20.8384 526.8992-376.337066 14.882134 20.821333z" fill="#2E87FF" p-id="14283"></path><path d="M738.798933 844.100267l-188.177066-620.919467 24.507733-7.441067 188.177067 620.987734z" fill="#2E87FF" p-id="14284"></path><path d="M849.851733 439.261867h-658.619733v-25.6h658.619733z" fill="#2E87FF" p-id="14285"></path><path d="M699.306667 956.740267h-357.5296v-25.6h357.5296z" fill="#2E87FF" p-id="14286"></path></svg>